<svg preserveAspectRatio="none" width="100%" height="100%" overflow="visible" style="display: block;" viewBox="0 0 14.3333 14.3333" fill="none" xmlns="http://www.w3.org/2000/svg">
<g id="elements">
<path id="Vector" d="M0.500001 3.16667C0.500001 1.90959 0.500001 1.28105 0.890526 0.890526C1.28105 0.500001 1.90959 0.500001 3.16667 0.500001C4.42375 0.500001 5.05229 0.500001 5.44281 0.890526C5.83334 1.28105 5.83333 1.90959 5.83333 3.16667V4.5C5.83333 5.75708 5.83334 6.38562 5.44281 6.77614C5.05229 7.16667 4.42375 7.16667 3.16667 7.16667C1.90959 7.16667 1.28105 7.16667 0.890526 6.77614C0.500001 6.38562 0.500001 5.75708 0.500001 4.5V3.16667Z" stroke="var(--stroke-0, #838383)"/>
<path id="Vector_2" d="M0.500001 11.8333C0.500001 11.2121 0.500001 10.9015 0.601495 10.6564C0.736821 10.3297 0.996386 10.0702 1.32309 9.93483C1.56812 9.83334 1.87875 9.83334 2.5 9.83334H3.83333C4.45459 9.83334 4.76522 9.83334 5.01025 9.93483C5.33695 10.0702 5.59652 10.3297 5.73184 10.6564C5.83334 10.9015 5.83333 11.2121 5.83333 11.8333C5.83333 12.4546 5.83334 12.7652 5.73184 13.0102C5.59652 13.337 5.33695 13.5965 5.01025 13.7318C4.76522 13.8333 4.45459 13.8333 3.83333 13.8333H2.5C1.87875 13.8333 1.56812 13.8333 1.32309 13.7318C0.996386 13.5965 0.736821 13.337 0.601495 13.0102C0.500001 12.7652 0.500001 12.4546 0.500001 11.8333Z" stroke="var(--stroke-0, #838383)"/>
<path id="Vector_3" d="M8.5 9.83334C8.5 8.57626 8.5 7.94772 8.89053 7.55719C9.28105 7.16667 9.90959 7.16667 11.1667 7.16667C12.4237 7.16667 13.0523 7.16667 13.4428 7.55719C13.8333 7.94772 13.8333 8.57626 13.8333 9.83334V11.1667C13.8333 12.4237 13.8333 13.0523 13.4428 13.4428C13.0523 13.8333 12.4237 13.8333 11.1667 13.8333C9.90959 13.8333 9.28105 13.8333 8.89053 13.4428C8.5 13.0523 8.5 12.4237 8.5 11.1667V9.83334Z" stroke="var(--stroke-0, #838383)"/>
<path id="Vector_4" d="M8.5 2.5C8.5 1.87875 8.5 1.56812 8.6015 1.32309C8.73682 0.996386 8.99639 0.736821 9.32309 0.601495C9.56812 0.500001 9.87875 0.500001 10.5 0.500001H11.8333C12.4546 0.500001 12.7652 0.500001 13.0102 0.601495C13.337 0.736821 13.5965 0.996386 13.7318 1.32309C13.8333 1.56812 13.8333 1.87875 13.8333 2.5C13.8333 3.12126 13.8333 3.43188 13.7318 3.67691C13.5965 4.00362 13.337 4.26318 13.0102 4.39851C12.7652 4.5 12.4546 4.5 11.8333 4.5H10.5C9.87875 4.5 9.56812 4.5 9.32309 4.39851C8.99639 4.26318 8.73682 4.00362 8.6015 3.67691C8.5 3.43188 8.5 3.12126 8.5 2.5Z" stroke="var(--stroke-0, #838383)"/>
</g>
</svg>
