<svg preserveAspectRatio="xMidYMid meet" width="100%" height="100%" overflow="visible" style="display: block;" viewBox="0 0 14.0909 11.8182" fill="none" xmlns="http://www.w3.org/2000/svg">
<g id="Group 3">
<path id="Vector" d="M0.681818 1.59091V10.2273C0.681818 10.7294 1.08884 11.1364 1.59091 11.1364H11.7309C12.4528 11.1364 12.8867 10.3354 12.4924 9.73064L6.85992 1.0943C6.6921 0.836982 6.40567 0.681818 6.09845 0.681818H1.59091C1.08884 0.681818 0.681818 1.08884 0.681818 1.59091Z" fill="var(--fill-0, #0090FF)" stroke="var(--stroke-0, #0090FF)" stroke-width="1.36364"/>
<path id="Vector_2" d="M0.681818 3.86368V10.2273C0.681818 10.7294 1.08884 11.1364 1.59091 11.1364H12.5C13.0021 11.1364 13.4091 10.7294 13.4091 10.2273V3.86368C13.4091 3.3616 13.0021 2.95458 12.5 2.95458H1.59091C1.08884 2.95458 0.681818 3.3616 0.681818 3.86368Z" fill="var(--fill-0, #6ABAFF)" stroke="var(--stroke-0, #6ABAFF)" stroke-width="1.36364"/>
</g>
</svg>
