<svg viewBox="0 0 16 16" fill="none" xmlns="http://www.w3.org/2000/svg">
  <path d="M1.78 3.01L2.89 9.45C2.95 9.82 3.27 10.09 3.65 10.09H11.48C12.14 10.09 12.5 9.32 12.08 8.81L6.54 1.37C6.39 1.19 6.17 1.09 5.94 1.09H2.55C2.07 1.09 1.7 1.53 1.78 3.01Z" fill="#0090FF" stroke="#0090FF" stroke-width="1.17"/>
  <path d="M4.16 4.83L3.2 10.31C3.13 10.74 3.42 11.09 3.85 11.09H12.42C12.85 11.09 13.26 10.74 13.34 10.31L14.3 4.83C14.37 4.4 14.08 4.05 13.65 4.05H4.08C3.65 4.05 3.24 4.4 3.16 4.83Z" fill="#6ABAFF" stroke="#6ABAFF" stroke-width="1.18"/>
</svg>
