<svg preserveAspectRatio="none" width="100%" height="100%" overflow="visible" style="display: block;" viewBox="0 0 14.3333 14.3333" fill="none" xmlns="http://www.w3.org/2000/svg">
<g id="elements">
<path id="Vector" d="M13.4798 14.1869C13.675 14.3821 13.9916 14.3821 14.1869 14.1869C14.3821 13.9916 14.3821 13.675 14.1869 13.4798L13.8333 13.8333L13.4798 14.1869ZM12.6333 12.6333L12.2798 12.9869L13.4798 14.1869L13.8333 13.8333L14.1869 13.4798L12.9869 12.2798L12.6333 12.6333ZM13.2333 10.5333H13.7333C13.7333 8.76602 12.3006 7.33333 10.5333 7.33333V7.83333V8.33333C11.7484 8.33333 12.7333 9.31831 12.7333 10.5333H13.2333ZM10.5333 7.83333V7.33333C8.76602 7.33333 7.33333 8.76602 7.33333 10.5333H7.83333H8.33333C8.33333 9.31831 9.31831 8.33333 10.5333 8.33333V7.83333ZM7.83333 10.5333H7.33333C7.33333 12.3006 8.76602 13.7333 10.5333 13.7333V13.2333V12.7333C9.31831 12.7333 8.33333 11.7484 8.33333 10.5333H7.83333ZM10.5333 13.2333V13.7333C12.3006 13.7333 13.7333 12.3006 13.7333 10.5333H13.2333H12.7333C12.7333 11.7484 11.7484 12.7333 10.5333 12.7333V13.2333Z" fill="var(--stroke-0, #202020)"/>
<path id="Vector_2" d="M13.8333 7.16667C13.8333 3.48477 10.8486 0.5 7.16667 0.5C3.48477 0.5 0.5 3.48477 0.5 7.16667C0.5 10.8486 3.48477 13.8333 7.16667 13.8333" stroke="var(--stroke-0, #202020)" stroke-linecap="round"/>
<path id="Vector_3" d="M12.5 2.96599C11.8768 3.0109 11.0787 3.25216 10.5253 3.96851C9.52564 5.2624 8.52601 5.37037 7.85959 4.93907C6.85997 4.29213 7.7 3.24424 6.52675 2.67477C5.76209 2.30361 5.65547 1.29363 6.08106 0.499999" stroke="var(--stroke-0, #202020)" stroke-linejoin="round"/>
<path id="Vector_4" d="M0.5 6.5C1.00833 6.94141 1.72031 7.34546 2.55916 7.34546C4.29229 7.34546 4.63891 7.67661 4.63891 9.0012C4.63891 10.3258 4.63891 10.3258 4.98554 11.3192C5.211 11.9654 5.28981 12.6116 4.8404 13.1667" stroke="var(--stroke-0, #202020)" stroke-linejoin="round"/>
</g>
</svg>
