<svg preserveAspectRatio="none" width="100%" height="100%" overflow="visible" style="display: block;" viewBox="0 0 14.3333 14.3333" fill="none" xmlns="http://www.w3.org/2000/svg">
<g id="elements">
<path id="Vector" d="M9.16667 10.5C8.63365 10.9149 7.9335 11.1667 7.16667 11.1667C6.39984 11.1667 5.69969 10.9149 5.16667 10.5" stroke="var(--stroke-0, #838383)" stroke-linecap="round"/>
<path id="Vector_2" d="M0.734263 7.97564C0.498917 6.44416 0.381243 5.67842 0.670779 4.99958C0.960315 4.32075 1.60269 3.85629 2.88743 2.92738L3.84733 2.23333C5.44553 1.07778 6.24463 0.5 7.16667 0.5C8.08871 0.5 8.88781 1.07778 10.486 2.23333L11.4459 2.92738C12.7307 3.85629 13.373 4.32075 13.6626 4.99958C13.9521 5.67842 13.8344 6.44416 13.5991 7.97563L13.3984 9.28159C13.0648 11.4526 12.8979 12.5381 12.1193 13.1857C11.3407 13.8333 10.2024 13.8333 7.92588 13.8333H6.40746C4.13089 13.8333 2.99261 13.8333 2.214 13.1857C1.4354 12.5381 1.26858 11.4526 0.934954 9.28159L0.734263 7.97564Z" stroke="var(--stroke-0, #838383)" stroke-linejoin="round"/>
</g>
</svg>
