<svg viewBox="0 0 16 16" fill="none" xmlns="http://www.w3.org/2000/svg">
  <path d="M1.75 4.75L6.36 7.36C8.06 8.32 8.78 8.32 10.47 7.36L15.08 4.75" stroke="#00CD71" stroke-width="1.5" stroke-linejoin="round"/>
  <path d="M1.76 9.73C1.8 11.78 1.83 12.8 2.58 13.56C3.33 14.31 4.38 14.34 6.48 14.39C7.78 14.42 9.06 14.42 10.35 14.39C12.45 14.34 13.5 14.31 14.25 13.56C15 12.8 15.03 11.78 15.07 9.73C15.09 9.07 15.09 8.42 15.07 7.76C15.03 5.71 15 4.69 14.25 3.94C13.5 3.18 12.45 3.15 10.35 3.1C9.06 3.07 7.78 3.07 6.48 3.1C4.38 3.15 3.33 3.18 2.58 3.94C1.83 4.69 1.8 5.71 1.76 7.76C1.75 8.42 1.75 9.07 1.76 9.73Z" stroke="#00CD71" stroke-width="1.5" stroke-linejoin="round"/>
</svg>
