<svg preserveAspectRatio="none" width="100%" height="100%" overflow="visible" style="display: block;" viewBox="0 0 14.3333 14.3333" fill="none" xmlns="http://www.w3.org/2000/svg">
<g id="elements">
<path id="Vector" d="M4.36066 11.8333C4.1431 11.7454 4.02294 11.7028 3.95573 11.711C3.87312 11.7212 3.75327 11.8091 3.51356 11.985C3.09091 12.2952 2.55846 12.518 1.76886 12.4989C1.36958 12.4892 1.16994 12.4843 1.08057 12.3327C0.991194 12.181 1.10251 11.9711 1.32513 11.5513C1.63389 10.969 1.82951 10.3023 1.53309 9.76817C1.02256 9.00523 0.588906 8.10168 0.525537 7.12582C0.491488 6.60148 0.491488 6.05848 0.525537 5.53414C0.699527 2.85476 2.81403 0.720505 5.46861 0.544889C6.37241 0.485098 7.31795 0.484976 8.22359 0.544889C10.8669 0.719758 12.9747 2.83665 13.1643 5.5" stroke="var(--stroke-0, #838383)" stroke-linecap="round" stroke-linejoin="round"/>
<path id="Vector_2" d="M8.96509 13.5981C7.29189 13.4908 5.9591 12.1865 5.84943 10.5491C5.82797 10.2287 5.82797 9.89685 5.84943 9.57642C5.9591 7.93902 7.29189 6.63475 8.96509 6.52743C9.53592 6.49082 10.1319 6.49089 10.7016 6.52743C12.3748 6.63475 13.7076 7.93902 13.8172 9.57642C13.8387 9.89685 13.8387 10.2287 13.8172 10.5491C13.7773 11.1455 13.504 11.6976 13.1822 12.1639C12.9953 12.4903 13.1186 12.8977 13.3132 13.2535C13.4536 13.5101 13.5237 13.6384 13.4674 13.7311C13.4111 13.8238 13.2852 13.8267 13.0336 13.8326C12.5359 13.8443 12.2003 13.7082 11.9339 13.5186C11.7828 13.4111 11.7072 13.3574 11.6552 13.3512C11.6031 13.345 11.5006 13.3857 11.2957 13.4672C11.1116 13.5403 10.8977 13.5855 10.7016 13.5981C10.1319 13.6346 9.53592 13.6347 8.96509 13.5981Z" stroke="var(--stroke-0, #838383)" stroke-linejoin="round"/>
</g>
</svg>
