<svg preserveAspectRatio="xMidYMid meet" width="100%" height="100%" overflow="visible" style="display: block;" viewBox="0 0 13.0003 14.3333" fill="none" xmlns="http://www.w3.org/2000/svg">
<g id="elements">
<path id="Vector" d="M12.462 10.3903C12.0244 7.75772 10.6623 5.79742 9.47811 4.646C9.13353 4.31095 8.96124 4.14342 8.58065 3.98838C8.20007 3.83333 7.87293 3.83333 7.21865 3.83333H5.78161C5.12734 3.83333 4.8002 3.83333 4.41961 3.98838C4.03902 4.14342 3.86674 4.31095 3.52216 4.646C2.33801 5.79742 0.975869 7.75772 0.53831 10.3903C0.212752 12.349 2.01965 13.8333 4.03901 13.8333H8.96125C10.9806 13.8333 12.7875 12.349 12.462 10.3903Z" stroke="var(--stroke-0, #838383)" stroke-linecap="round"/>
<path id="Vector_2" d="M3.33788 2.12858C3.20034 1.92839 3.00098 1.65666 3.41279 1.5947C3.83608 1.53101 4.27561 1.82076 4.70583 1.81481C5.09505 1.80942 5.29334 1.6368 5.50607 1.39032C5.73009 1.13078 6.07695 0.5 6.50013 0.5C6.92332 0.5 7.27018 1.13078 7.49419 1.39032C7.70693 1.6368 7.90522 1.80942 8.29443 1.81481C8.72466 1.82076 9.16419 1.53101 9.58747 1.5947C9.99928 1.65666 9.79992 1.92839 9.66239 2.12858L9.0405 3.03376C8.77447 3.42097 8.64145 3.61458 8.3631 3.72396C8.08474 3.83333 7.72502 3.83333 7.0056 3.83333H5.99467C5.27524 3.83333 4.91553 3.83333 4.63717 3.72396C4.35881 3.61458 4.2258 3.42097 3.95977 3.03376L3.33788 2.12858Z" stroke="var(--stroke-0, #838383)"/>
</g>
</svg>
