<svg preserveAspectRatio="none" width="100%" height="100%" overflow="visible" style="display: block;" viewBox="0 0 14.3333 13" fill="none" xmlns="http://www.w3.org/2000/svg">
<g id="elements">
<path id="Vector" d="M12.8115 12.852C13.0059 13.0481 13.3225 13.0495 13.5186 12.8551C13.7148 12.6607 13.7162 12.3442 13.5218 12.148L13.1667 12.5L12.8115 12.852ZM11.0128 10.3268L10.6577 10.6788L12.8115 12.852L13.1667 12.5L13.5218 12.148L11.3679 9.97487L11.0128 10.3268ZM12.2333 7.36667H12.7333C12.7333 4.77093 10.6291 2.66667 8.03333 2.66667V3.16667V3.66667C10.0768 3.66667 11.7333 5.32321 11.7333 7.36667H12.2333ZM8.03333 3.16667V2.66667C5.4376 2.66667 3.33333 4.77093 3.33333 7.36667H3.83333H4.33333C4.33333 5.32321 5.98988 3.66667 8.03333 3.66667V3.16667ZM3.83333 7.36667H3.33333C3.33333 9.96241 5.4376 12.0667 8.03333 12.0667V11.5667V11.0667C5.98988 11.0667 4.33333 9.41012 4.33333 7.36667H3.83333ZM8.03333 11.5667V12.0667C10.6291 12.0667 12.7333 9.96241 12.7333 7.36667H12.2333H11.7333C11.7333 9.41012 10.0768 11.0667 8.03333 11.0667V11.5667Z" fill="var(--stroke-0, #9C9C9C)"/>
<path id="Vector_2" d="M1.83333 5.16667C1.50717 5.14192 1.2795 5.08621 1.09257 4.96078C0.946987 4.86309 0.821986 4.73756 0.724708 4.59136C0.500001 4.25363 0.500001 3.7835 0.500001 2.84322C0.500001 1.90294 0.500001 1.43281 0.724708 1.09508C0.821986 0.948881 0.946987 0.82335 1.09257 0.72566C1.42887 0.500001 1.89703 0.500001 2.83333 0.500001H11.5C12.4363 0.500001 12.9045 0.500001 13.2408 0.72566C13.3863 0.82335 13.5113 0.948881 13.6086 1.09508C13.8333 1.43281 13.8333 1.90294 13.8333 2.84322C13.8333 3.70171 13.8333 4.16829 13.6623 4.5" stroke="var(--stroke-0, #9C9C9C)" stroke-linecap="round"/>
</g>
</svg>
