<svg preserveAspectRatio="xMidYMid meet" width="100%" height="100%" overflow="visible" style="display: block;" viewBox="0 0 15.6667 11.6667" fill="none" xmlns="http://www.w3.org/2000/svg">
<g id="elements">
<path id="Vector" d="M13.6827 9.83333C14.1822 9.83333 14.5796 9.51898 14.9363 9.07943C15.6666 8.17963 14.4676 7.46056 14.0103 7.1084C13.5454 6.75041 13.0263 6.54761 12.5 6.5M11.8334 5.16667C12.7538 5.16667 13.5 4.42047 13.5 3.5C13.5 2.57953 12.7538 1.83333 11.8334 1.83333" stroke="var(--stroke-0, #838383)" stroke-linecap="round"/>
<path id="Vector_2" d="M1.984 9.83333C1.48447 9.83333 1.08714 9.51898 0.730393 9.07943C8.8017e-05 8.17963 1.19914 7.46056 1.65646 7.1084C2.12135 6.75041 2.64042 6.54761 3.1667 6.5M3.50003 5.16667C2.57955 5.16667 1.83336 4.42047 1.83336 3.5C1.83336 2.57953 2.57955 1.83333 3.50003 1.83333" stroke="var(--stroke-0, #838383)" stroke-linecap="round"/>
<path id="Vector_3" d="M5.22254 7.90746C4.54136 8.32867 2.75533 9.18873 3.84314 10.2649C4.37453 10.7907 4.96635 11.1667 5.71042 11.1667H9.95625C10.7003 11.1667 11.2922 10.7907 11.8235 10.2649C12.9113 9.18873 11.1253 8.32867 10.4441 7.90746C8.84677 6.91974 6.81991 6.91974 5.22254 7.90746Z" stroke="var(--stroke-0, #838383)" stroke-linecap="round" stroke-linejoin="round"/>
<path id="Vector_4" d="M10.1667 2.83333C10.1667 4.122 9.122 5.16667 7.83334 5.16667C6.54467 5.16667 5.50001 4.122 5.50001 2.83333C5.50001 1.54467 6.54467 0.5 7.83334 0.5C9.122 0.5 10.1667 1.54467 10.1667 2.83333Z" stroke="var(--stroke-0, #838383)"/>
</g>
</svg>
