<svg preserveAspectRatio="none" width="100%" height="100%" overflow="visible" style="display: block;" viewBox="0 0 16 16" fill="none" xmlns="http://www.w3.org/2000/svg">
<g id="global">
<path id="Vector" d="M8 14.6667C11.6819 14.6667 14.6667 11.6819 14.6667 8C14.6667 4.3181 11.6819 1.33333 8 1.33333C4.3181 1.33333 1.33333 4.3181 1.33333 8C1.33333 11.6819 4.3181 14.6667 8 14.6667Z" stroke="var(--stroke-0, #0090FF)" stroke-linecap="round" stroke-linejoin="round"/>
<path id="Vector_2" d="M5.33333 2H6C4.7 5.89333 4.7 10.1067 6 14H5.33333" stroke="var(--stroke-0, #0090FF)" stroke-linecap="round" stroke-linejoin="round"/>
<path id="Vector_3" d="M10 2C11.3 5.89333 11.3 10.1067 10 14" stroke="var(--stroke-0, #0090FF)" stroke-linecap="round" stroke-linejoin="round"/>
<path id="Vector_4" d="M2 10.6667V10C5.89333 11.3 10.1067 11.3 14 10V10.6667" stroke="var(--stroke-0, #0090FF)" stroke-linecap="round" stroke-linejoin="round"/>
<path id="Vector_5" d="M2 6C5.89333 4.7 10.1067 4.7 14 6" stroke="var(--stroke-0, #0090FF)" stroke-linecap="round" stroke-linejoin="round"/>
<g id="Vector_6" opacity="0">
</g>
</g>
</svg>
