<svg width="16" height="16" viewBox="0 0 16 16" fill="none" xmlns="http://www.w3.org/2000/svg">
  <path
    d="M9.0785 14.2447C8.78937 14.5154 8.40293 14.6667 8.00075 14.6667C7.59856 14.6667 7.21212 14.5154 6.92299 14.2447C4.27535 11.7507 0.727175 8.96465 2.45751 4.91982C3.39309 2.73281 5.6389 1.33337 8.00075 1.33337C10.3626 1.33337 12.6084 2.73281 13.544 4.91982C15.2721 8.95955 11.7327 11.7593 9.0785 14.2447Z"
    stroke="#969696"
    stroke-linecap="round"
    stroke-linejoin="round"
  />
  <path
    d="M10.3346 7.33333C10.3346 8.622 9.28997 9.66667 8.0013 9.66667C6.71264 9.66667 5.66797 8.622 5.66797 7.33333C5.66797 6.04467 6.71264 5 8.0013 5C9.28997 5 10.3346 6.04467 10.3346 7.33333Z"
    stroke="#969696"
    stroke-linecap="round"
    stroke-linejoin="round"
  />
</svg>
