<svg preserveAspectRatio="none" width="100%" height="100%" overflow="visible" style="display: block;" viewBox="0 0 20 20" fill="none" xmlns="http://www.w3.org/2000/svg">
<g id="Frame 1618869209">
<rect x="0.25" y="0.25" width="19.5" height="19.5" rx="3.75" fill="var(--fill-0, white)"/>
<rect x="0.25" y="0.25" width="19.5" height="19.5" rx="3.75" stroke="var(--stroke-0, #F4F4F4)" stroke-width="0.5"/>
<g id="linked_in">
<path d="M6.89485 5.82955C6.89485 6.56383 6.24681 7.15909 5.44742 7.15909C4.64803 7.15909 4 6.56383 4 5.82955C4 5.09526 4.64803 4.5 5.44742 4.5C6.24681 4.5 6.89485 5.09526 6.89485 5.82955Z" fill="var(--fill-0, #AAAAAA)"/>
<path d="M4.19794 8.13636H6.67217V15.5H4.19794V8.13636Z" fill="var(--fill-0, #AAAAAA)"/>
<path d="M10.6557 8.13636H8.18144V15.5H10.6557C10.6557 15.5 10.6557 13.1818 10.6557 11.7324C10.6557 10.8624 10.9581 9.98864 12.1649 9.98864C13.5288 9.98864 13.5206 11.1271 13.5142 12.0091C13.5059 13.1621 13.5258 14.3386 13.5258 15.5H16V11.6136C15.979 9.13208 15.3207 7.98864 13.1546 7.98864C11.8683 7.98864 11.071 8.56219 10.6557 9.0811V8.13636Z" fill="var(--fill-0, #AAAAAA)"/>
</g>
</g>
</svg>
