<svg preserveAspectRatio="none" width="100%" height="100%" overflow="visible" style="display: block;" viewBox="0 0 12 12" fill="none" xmlns="http://www.w3.org/2000/svg">
<g id="Symbol 1" clip-path="url(#clip0_0_8)">
<path id="Vector" d="M4.2185 7.9895C4.06314 8.32003 3.79921 8.58734 3.47069 8.7469C3.14217 8.90647 2.7689 8.94864 2.41306 8.86641C2.05722 8.78418 1.74029 8.5825 1.51509 8.29498C1.28989 8.00745 1.17001 7.65144 1.17542 7.28626C1.18084 6.92108 1.31121 6.56878 1.54483 6.28806C1.77845 6.00733 2.10121 5.81513 2.45933 5.74348C2.81745 5.67183 3.18931 5.72505 3.51296 5.89427C3.83661 6.0635 4.0925 6.33852 4.238 6.6735H5.4695C5.31386 6.01314 4.92164 5.43269 4.36702 5.04192C3.81241 4.65115 3.13383 4.47714 2.4596 4.5528C1.78538 4.62846 1.16224 4.94854 0.708025 5.45251C0.253808 5.95649 -3.03861e-06 6.60942 -0.00541608 7.28786C-0.0108291 7.96629 0.232531 8.6232 0.678648 9.13436C1.12476 9.64552 1.74271 9.9755 2.41565 10.0619C3.08858 10.1483 3.76985 9.98515 4.33063 9.60328C4.89141 9.22141 5.29284 8.64729 5.459 7.9895H4.2185ZM9.227 4.5375C9.1585 4.5375 9.0905 4.5415 9.023 4.5465C8.53391 4.58243 8.06332 4.7485 7.66 5.0275V1.9155H6.53V9.8935H7.6675V9.6C8.0263 9.84404 8.43737 10.0004 8.86764 10.0566C9.29791 10.1128 9.73536 10.0673 10.1448 9.92358C10.5542 9.7799 10.9243 9.54211 11.225 9.22935C11.5258 8.9166 11.749 8.53761 11.8766 8.12287C12.0042 7.70814 12.0327 7.26924 11.9598 6.84149C11.8868 6.41374 11.7145 6.00908 11.4567 5.66007C11.1988 5.31106 10.8627 5.02744 10.4753 4.83203C10.0878 4.63662 9.65992 4.53489 9.226 4.535L9.227 4.5375ZM10.81 7.5235C10.81 7.54 10.805 7.557 10.8025 7.5735C10.7917 7.63948 10.777 7.70477 10.7585 7.769V7.775C10.737 7.84327 10.7111 7.91008 10.681 7.975L10.668 8C10.5059 8.33698 10.2313 8.60682 9.8915 8.763C9.79043 8.80989 9.68467 8.84593 9.576 8.8705H9.5715C9.5215 8.8815 9.4715 8.8895 9.4215 8.896C9.4145 8.896 9.4075 8.896 9.4 8.899C9.34273 8.90546 9.28513 8.90863 9.2275 8.9085C9.15539 8.90799 9.0834 8.90264 9.012 8.8925L8.962 8.885C8.82188 8.86128 8.68552 8.81908 8.5565 8.7595L8.5265 8.745C8.39686 8.68136 8.27643 8.60046 8.1685 8.5045L8.156 8.4935C8.04662 8.39433 7.9514 8.2806 7.873 8.1555L7.8665 8.1445C7.82758 8.08125 7.793 8.01544 7.763 7.9475C7.67209 7.73956 7.62679 7.51455 7.63016 7.28764C7.63352 7.06072 7.68547 6.83715 7.7825 6.632C7.89987 6.38329 8.07936 6.16902 8.30365 6.00989C8.52795 5.85075 8.78948 5.75212 9.063 5.7235C9.11776 5.71671 9.17283 5.71271 9.228 5.7115C9.65235 5.7115 10.0593 5.88007 10.3594 6.18013C10.6594 6.48019 10.828 6.88715 10.828 7.3115C10.8268 7.38249 10.8208 7.45332 10.81 7.5235Z" fill="var(--fill-0, #AAAAAA)"/>
</g>
<defs>
<clipPath id="clip0_0_8">
<rect width="12" height="12" fill="white"/>
</clipPath>
</defs>
</svg>
