<svg preserveAspectRatio="none" width="100%" height="100%" overflow="visible" style="display: block;" viewBox="0 0 20 20" fill="none" xmlns="http://www.w3.org/2000/svg">
<g id="Frame 1618869211">
<rect x="0.25" y="0.25" width="19.5" height="19.5" rx="3.75" fill="var(--fill-0, white)"/>
<rect x="0.25" y="0.25" width="19.5" height="19.5" rx="3.75" stroke="var(--stroke-0, #F4F4F4)" stroke-width="0.5"/>
<path id="Vector" d="M15.1953 7.06043C14.6721 6.13235 13.9201 5.36129 13.0144 4.82445C12.1015 4.27669 11.0609 3.99189 10.0029 4.0002C8.94384 3.99138 7.90222 4.27619 6.98841 4.82445C6.0818 5.36083 5.32885 6.13194 4.80512 7.06043C4.27029 7.99541 3.9922 9.06107 4.00028 10.1447C3.98776 11.4442 4.38952 12.7125 5.14461 13.757C5.87419 14.8003 6.91032 15.5775 8.10172 15.975C8.15443 15.9915 8.2102 15.995 8.2645 15.9853C8.3188 15.9756 8.37011 15.953 8.41428 15.9192C8.44704 15.8891 8.47304 15.8521 8.49052 15.8107C8.508 15.7693 8.51654 15.7245 8.51554 15.6795L8.51145 15.2473C8.50872 14.9751 8.50735 14.7385 8.50735 14.5375L8.32824 14.5717C8.18486 14.5951 8.03963 14.6045 7.89451 14.5998C7.71225 14.5966 7.53057 14.578 7.35132 14.5441C7.16069 14.5081 6.98126 14.4259 6.82803 14.3043C6.66731 14.1798 6.54745 14.0081 6.48444 13.8121L6.40659 13.6281C6.34094 13.4824 6.2584 13.3453 6.16075 13.2199C6.07309 13.0919 5.95638 12.9875 5.82067 12.9159L5.76623 12.8758C5.72883 12.8481 5.69483 12.8159 5.66497 12.7799C5.63613 12.7464 5.61244 12.7086 5.59473 12.6678C5.57912 12.6302 5.59219 12.5994 5.63395 12.5755C5.70579 12.5459 5.78327 12.5336 5.86047 12.5395L6.01675 12.5635C6.15643 12.6017 6.28774 12.6668 6.40366 12.7553C6.55852 12.8634 6.6879 13.0055 6.78238 13.1713C6.88573 13.3711 7.03448 13.5426 7.21611 13.6713C7.36605 13.7796 7.54422 13.8395 7.72769 13.8433C7.87711 13.8453 8.02634 13.8318 8.17312 13.8031C8.29444 13.7777 8.41234 13.7374 8.52432 13.6833C8.55016 13.3701 8.6862 13.0771 8.90714 12.859C8.63704 12.8319 8.36936 12.7838 8.1064 12.7151C7.84976 12.6428 7.60298 12.5379 7.3718 12.4028C7.12982 12.2681 6.91603 12.086 6.74257 11.8669C6.55701 11.6152 6.41813 11.3307 6.33284 11.0277C6.22024 10.6387 6.16616 10.2344 6.17246 9.82873C6.15954 9.2176 6.38128 8.62569 6.78998 8.18022C6.59786 7.64994 6.61742 7.06351 6.84442 6.5479C7.07391 6.50987 7.30927 6.54766 7.51638 6.6558C7.7411 6.74131 7.95908 6.84432 8.16844 6.96392C8.30658 7.04904 8.41721 7.12098 8.50033 7.17972C9.48214 6.90238 10.5189 6.90238 11.5007 7.17972L11.7975 6.9879C12.0257 6.84757 12.2663 6.72975 12.5163 6.63602C12.7127 6.53831 12.9343 6.50742 13.1491 6.5479C13.2639 6.80237 13.3285 7.07755 13.3393 7.35766C13.35 7.63778 13.3066 7.9173 13.2117 8.18022C13.6203 8.62572 13.8421 9.21762 13.8292 9.82873C13.8353 10.2361 13.7813 10.6422 13.6688 11.0331C13.5845 11.3373 13.444 11.6222 13.255 11.8723C13.0787 12.089 12.8641 12.2696 12.6223 12.4046C12.391 12.5397 12.1443 12.6445 11.8877 12.7169C11.6247 12.7859 11.357 12.8341 11.0869 12.8614C11.2323 13.0089 11.344 13.1875 11.4142 13.3844C11.4845 13.5813 11.5114 13.7916 11.4931 14.0003V15.6885C11.4921 15.7332 11.5003 15.7777 11.5171 15.819C11.5339 15.8603 11.5591 15.8975 11.5909 15.9282C11.6341 15.9622 11.6848 15.985 11.7385 15.9947C11.7921 16.0044 11.8473 16.0007 11.8993 15.984C13.0908 15.5865 14.1269 14.8093 14.8565 13.766C15.6129 12.7188 16.0143 11.4471 15.9996 10.1447C16.0077 9.06116 15.7298 7.99556 15.1953 7.06043Z" fill="var(--fill-0, #AAAAAA)"/>
</g>
</svg>
