<svg width="12" height="12" viewBox="0 0 10.501 11.001" fill="none" xmlns="http://www.w3.org/2000/svg">
<g id="elements">
<path id="Vector" d="M8.13872 6.32494L8.53467 7.1234C8.58867 7.23455 8.73265 7.34116 8.85414 7.36157L9.57181 7.48179C10.0308 7.55892 10.1387 7.89463 9.80803 8.22581L9.2501 8.78836C9.15561 8.88363 9.10386 9.06737 9.13311 9.19893L9.29284 9.89531C9.41883 10.4465 9.12861 10.6597 8.64491 10.3717L7.97224 9.97017C7.85075 9.89758 7.65052 9.89758 7.52679 9.97017L6.85411 10.3717C6.37266 10.6597 6.0802 10.4443 6.20618 9.89531L6.36591 9.19893C6.39516 9.06737 6.34342 8.88363 6.24893 8.78836L5.69099 8.22581C5.36253 7.89463 5.46826 7.55892 5.92721 7.48179L6.64488 7.36157C6.76412 7.34116 6.9081 7.23455 6.9621 7.1234L7.35805 6.32494C7.57403 5.89169 7.92499 5.89169 8.13872 6.32494Z" stroke="#969696" stroke-linecap="round" stroke-linejoin="round"/>
<path id="Vector_2" d="M8.25 0.5V1.5M2.25 0.5V1.5" stroke="#969696" stroke-linecap="round" stroke-linejoin="round"/>
<path id="Vector_3" d="M9.99987 5.25C9.99785 3.31682 9.96334 2.31401 9.37394 1.67682C8.74788 1 7.74025 1 5.725 1H4.775C2.75975 1 1.75212 1 1.12606 1.67682C0.5 2.35364 0.5 3.44297 0.5 5.62162V5.87838C0.5 8.05703 0.5 9.14636 1.12606 9.82318C1.72297 10.4685 2.66674 10.4985 4.5 10.4999" stroke="#969696" stroke-linecap="round" stroke-linejoin="round"/>
<path id="Vector_4" d="M0.75 3.5H9.75" stroke="#969696" stroke-linecap="round" stroke-linejoin="round"/>
</g>
</svg>
