<svg width="12" height="12" viewBox="0 0 11 11" fill="none" xmlns="http://www.w3.org/2000/svg">
<g id="elements">
<path id="Vector" d="M10.5 5.5C10.5 8.26142 8.26142 10.5 5.5 10.5C2.73858 10.5 0.5 8.26142 0.5 5.5C0.5 2.73858 2.73858 0.5 5.5 0.5C8.26142 0.5 10.5 2.73858 10.5 5.5Z" stroke="#969696"/>
<path id="Vector_2" d="M6.375 4.56389C6.375 4.84004 6.59886 5.06389 6.875 5.06389C7.15114 5.06389 7.375 4.84004 7.375 4.56389H6.875H6.375ZM4.5 6.43632C4.5 6.16018 4.27614 5.93632 4 5.93632C3.72386 5.93632 3.5 6.16018 3.5 6.43632H4H4.5ZM6 3C6 2.72386 5.77614 2.5 5.5 2.5C5.22386 2.5 5 2.72386 5 3L5.5 3L6 3ZM5 8C5 8.27614 5.22386 8.5 5.5 8.5C5.77614 8.5 6 8.27614 6 8H5.5H5ZM5.5 5.42809V4.92809C5.03188 4.92809 4.80995 4.85245 4.71565 4.78932C4.66417 4.75485 4.625 4.71316 4.625 4.56389H4.125H3.625C3.625 4.97146 3.77333 5.36187 4.15935 5.62029C4.50255 5.85005 4.96812 5.92809 5.5 5.92809V5.42809ZM4.125 4.56389H4.625C4.625 4.48306 4.66864 4.36765 4.82339 4.25418C4.97784 4.14093 5.21543 4.05566 5.5 4.05566V3.55566V3.05566C5.02518 3.05566 4.57527 3.19609 4.23207 3.44775C3.88916 3.69919 3.625 4.0879 3.625 4.56389H4.125ZM5.5 3.55566V4.05566C5.78457 4.05566 6.02216 4.14093 6.17661 4.25418C6.33136 4.36765 6.375 4.48306 6.375 4.56389H6.875H7.375C7.375 4.0879 7.11084 3.69919 6.76793 3.44775C6.42473 3.19609 5.97482 3.05566 5.5 3.05566V3.55566ZM7 6.43632H6.5C6.5 6.6068 6.4367 6.70219 6.30438 6.78117C6.1417 6.87828 5.86915 6.94455 5.5 6.94455V7.44455V7.94455C5.95928 7.94455 6.43673 7.86679 6.81694 7.63982C7.22751 7.39474 7.5 6.98601 7.5 6.43632H7ZM5.5 7.44455V6.94455C5.17156 6.94455 4.89665 6.85418 4.71826 6.73428C4.53675 6.61227 4.5 6.49746 4.5 6.43632H4H3.5C3.5 6.93201 3.79904 7.32132 4.16042 7.56422C4.52492 7.80922 5.00001 7.94455 5.5 7.94455V7.44455ZM5.5 5.42809V5.92809C5.97212 5.92809 6.22696 6 6.35305 6.08172C6.43368 6.13398 6.5 6.21058 6.5 6.43632H7H7.5C7.5 5.9419 7.31632 5.51438 6.89695 5.24257C6.52304 5.00022 6.02788 4.92809 5.5 4.92809V5.42809ZM5.5 3.55566L6 3.55566L6 3L5.5 3L5 3L5 3.55566L5.5 3.55566ZM5.5 7.44455H5V8H5.5H6V7.44455H5.5Z" fill="#969696"/>
</g>
</svg>
