<svg width="12" height="12" viewBox="0 0 6.99963 11" fill="none" xmlns="http://www.w3.org/2000/svg">
<g id="elements">
<path id="Vector" d="M4.09868 3.5H2.90095C1.17899 3.5 0.0180228 5.2903 0.696335 6.89968C0.790825 7.12387 1.00762 7.26923 1.24749 7.26923H1.66928C1.81145 7.26923 1.93537 7.36762 1.96985 7.50786L2.51285 9.71642C2.62607 10.1769 3.03299 10.5 3.49982 10.5C3.96664 10.5 4.37356 10.1769 4.48679 9.71642L5.02978 7.50786C5.06426 7.36762 5.18819 7.26923 5.33036 7.26923H5.75214C5.99202 7.26923 6.20881 7.12387 6.3033 6.89968C6.98161 5.2903 5.82064 3.5 4.09868 3.5Z" stroke="#969696"/>
<circle id="Ellipse 1547" cx="3.49982" cy="2" r="1.5" stroke="#969696"/>
</g>
</svg>
