<svg width="10" height="10" viewBox="0 0 9.33334 6.00001" fill="none" xmlns="http://www.w3.org/2000/svg">
<g id="elements">
<path id="Vector" d="M0.146447 0.853553C-0.0488155 0.658291 -0.0488155 0.341709 0.146447 0.146447C0.341709 -0.0488154 0.658291 -0.0488154 0.853553 0.146447L0.5 0.5L0.146447 0.853553ZM3.58243 2.53406L3.27008 2.14362V2.14362L3.58243 2.53406ZM4.46554 1.82757L4.15319 1.43714V1.43714L4.46554 1.82757ZM5.60896 1.92466L5.23525 2.25684V2.25684L5.60896 1.92466ZM8.79037 4.75115C8.97383 4.95754 8.95524 5.27358 8.74885 5.45704C8.54246 5.6405 8.22642 5.62191 8.04296 5.41552L8.41667 5.08333L8.79037 4.75115ZM5.06998 1.49064L5.11228 0.992434H5.11228L5.06998 1.49064ZM3.00788 2.8577L3.03553 2.35846H3.03553L3.00788 2.8577ZM7.16667 6C6.89052 6 6.66667 5.77614 6.66667 5.5C6.66667 5.22386 6.89052 5 7.16667 5V5.5V6ZM8.33333 3.83333C8.33333 3.55719 8.55719 3.33333 8.83333 3.33333C9.10948 3.33333 9.33333 3.55719 9.33333 3.83333H8.83333H8.33333ZM8.71129 5.37796L9.06485 5.73151V5.73151L8.71129 5.37796ZM1.75 5.16667C1.47386 5.16667 1.25 4.94281 1.25 4.66667C1.25 4.39052 1.47386 4.16667 1.75 4.16667L1.75 4.66667V5.16667ZM4.25 4.16667C4.52614 4.16667 4.75 4.39052 4.75 4.66667C4.75 4.94281 4.52614 5.16667 4.25 5.16667V4.66667V4.16667ZM0.5 0.5L0.853553 0.146447L2.82614 2.11904L2.47259 2.47259L2.11904 2.82614L0.146447 0.853553L0.5 0.5ZM3.58243 2.53406L3.27008 2.14362L4.15319 1.43714L4.46554 1.82757L4.77788 2.21801L3.89477 2.92449L3.58243 2.53406ZM5.60896 1.92466L5.98266 1.59248L8.79037 4.75115L8.41667 5.08333L8.04296 5.41552L5.23525 2.25684L5.60896 1.92466ZM4.46554 1.82757L4.15319 1.43714C4.28871 1.32872 4.42805 1.21594 4.55659 1.13822C4.69747 1.05303 4.88297 0.972964 5.11228 0.992434L5.06998 1.49064L5.02767 1.98885C5.09129 1.99425 5.12082 1.96565 5.07403 1.99394C5.0491 2.00901 5.01429 2.03304 4.96265 2.07229C4.91117 2.11142 4.85243 2.15837 4.77788 2.21801L4.46554 1.82757ZM5.60896 1.92466L5.23525 2.25684C5.17183 2.18549 5.12185 2.12931 5.0777 2.08206C5.03342 2.03466 5.00315 2.00511 4.98112 1.98605C4.93977 1.95028 4.96406 1.98345 5.02767 1.98885L5.06998 1.49064L5.11228 0.992434C5.34158 1.0119 5.51093 1.1221 5.63543 1.22983C5.74902 1.32811 5.86736 1.46276 5.98266 1.59248L5.60896 1.92466ZM2.47259 2.47259L2.82614 2.11904C2.89012 2.18301 2.94035 2.2332 2.98458 2.27533C3.02892 2.31757 3.05887 2.34363 3.08041 2.36027C3.1205 2.39125 3.09589 2.3618 3.03553 2.35846L3.00788 2.8577L2.98023 3.35693C2.76088 3.34478 2.59406 3.24822 2.46897 3.15156C2.35514 3.06361 2.23508 2.94219 2.11904 2.82614L2.47259 2.47259ZM3.58243 2.53406L3.89477 2.92449C3.76663 3.02701 3.63389 3.13443 3.51104 3.20928C3.37604 3.29153 3.19958 3.36908 2.98023 3.35693L3.00788 2.8577L3.03553 2.35846C2.97517 2.35512 2.94747 2.38166 2.99073 2.3553C3.01397 2.34114 3.04662 2.31855 3.09535 2.28147C3.14396 2.24448 3.19943 2.20014 3.27008 2.14362L3.58243 2.53406ZM7.16667 5.5V5H8V5.5V6H7.16667V5.5ZM8.83333 4.66667H8.33333V3.83333H8.83333H9.33333V4.66667H8.83333ZM8 5.5V5C8.10007 5 8.17913 4.99997 8.24709 4.99825C8.3153 4.99653 8.35992 4.99332 8.39057 4.9892C8.44859 4.9814 8.40511 4.97704 8.35774 5.02441L8.71129 5.37796L9.06485 5.73151C8.89544 5.90092 8.69273 5.95758 8.52382 5.98029C8.3693 6.00106 8.18228 6 8 6V5.5ZM8.83333 4.66667H9.33333C9.33333 4.84895 9.3344 5.03596 9.31362 5.19049C9.29091 5.35939 9.23425 5.56211 9.06485 5.73151L8.71129 5.37796L8.35774 5.02441C8.31038 5.07177 8.31474 5.11526 8.32254 5.05724C8.32666 5.02659 8.32986 4.98197 8.33159 4.91376C8.3333 4.8458 8.33333 4.76673 8.33333 4.66667H8.83333ZM1.75 4.66667L1.75 4.16667H4.25V4.66667V5.16667H1.75V4.66667Z" fill="#05D052"/>
</g>
</svg>
