<svg preserveAspectRatio="none" width="100%" height="100%" overflow="visible" style="display: block;" viewBox="0 0 12.6667 11.5" fill="none" xmlns="http://www.w3.org/2000/svg">
<g id="elements">
<path id="Vector" d="M0.500005 3.41667C0.500005 3.41667 3.11168 0.5 6.33334 0.5C9.555 0.5 12.1667 3.41667 12.1667 3.41667" stroke="var(--stroke-0, #969696)" stroke-linecap="round"/>
<path id="Vector_2" d="M11.9006 6.35957C12.078 6.60826 12.1667 6.73261 12.1667 6.91667C12.1667 7.10073 12.078 7.22507 11.9007 7.47376C11.1038 8.59116 9.06872 11 6.33334 11C3.59796 11 1.5629 8.59116 0.76603 7.47376C0.588681 7.22507 0.500006 7.10073 0.500006 6.91667C0.500006 6.73261 0.58868 6.60826 0.766029 6.35958C1.5629 5.24217 3.59796 2.83333 6.33334 2.83333C9.06872 2.83333 11.1038 5.24217 11.9006 6.35957Z" stroke="var(--stroke-0, #969696)"/>
<path id="Vector_3" d="M8.08334 6.91667C8.08334 5.95017 7.29984 5.16667 6.33334 5.16667C5.36684 5.16667 4.58334 5.95017 4.58334 6.91667C4.58334 7.88316 5.36684 8.66667 6.33334 8.66667C7.29984 8.66667 8.08334 7.88316 8.08334 6.91667Z" stroke="var(--stroke-0, #969696)"/>
</g>
</svg>
