<svg preserveAspectRatio="none" width="100%" height="100%" overflow="visible" style="display: block;" viewBox="0 0 11.5 12.6667" fill="none" xmlns="http://www.w3.org/2000/svg">
<g id="elements">
<path id="Vector" d="M10.125 2.54167L9.76349 8.38964C9.67113 9.88376 9.62495 10.6308 9.25044 11.1679C9.06528 11.4335 8.82688 11.6576 8.55041 11.826C7.99123 12.1667 7.24274 12.1667 5.74577 12.1667C4.24682 12.1667 3.49734 12.1667 2.93778 11.8254C2.66113 11.6566 2.42266 11.4321 2.23757 11.1662C1.86318 10.6282 1.81801 9.88007 1.72769 8.38384L1.375 2.54167" stroke="var(--stroke-0, #FF6F6F)" stroke-linecap="round"/>
<path id="Vector_2" d="M0.5 2.54167H11M8.11584 2.54167L7.71761 1.72018C7.45308 1.17448 7.32082 0.901639 7.09267 0.731471C7.04206 0.693726 6.98847 0.660151 6.93243 0.631077C6.67978 0.500001 6.37657 0.500001 5.77014 0.500001C5.14848 0.500001 4.83766 0.500001 4.58081 0.636571C4.52389 0.666839 4.46957 0.701774 4.41842 0.741016C4.18762 0.918076 4.0587 1.20091 3.80085 1.76657L3.44754 2.54167" stroke="var(--stroke-0, #FF6F6F)" stroke-linecap="round"/>
<path id="Vector_3" d="M4.29167 8.95833L4.29167 5.45833" stroke="var(--stroke-0, #FF6F6F)" stroke-linecap="round"/>
<path id="Vector_4" d="M7.20833 8.95833L7.20833 5.45833" stroke="var(--stroke-0, #FF6F6F)" stroke-linecap="round"/>
</g>
</svg>
