<svg preserveAspectRatio="none" width="100%" height="100%" overflow="visible" style="display: block;" viewBox="0 0 16 16" fill="none" xmlns="http://www.w3.org/2000/svg">
<g id="global-search">
<g id="Group">
<path id="Vector" d="M14.6667 8C14.6667 4.32 11.68 1.33333 8 1.33333C4.32 1.33333 1.33333 4.32 1.33333 8C1.33333 11.68 4.32 14.6667 8 14.6667" stroke="var(--stroke-0, #0090FF)" stroke-linecap="round" stroke-linejoin="round"/>
<path id="Vector_2" d="M5.33334 2H6C4.7 5.89333 4.7 10.1067 6 14H5.33334" stroke="var(--stroke-0, #0090FF)" stroke-linecap="round" stroke-linejoin="round"/>
<path id="Vector_3" d="M10 2C10.6467 3.94667 10.9733 5.97333 10.9733 8" stroke="var(--stroke-0, #0090FF)" stroke-linecap="round" stroke-linejoin="round"/>
<path id="Vector_4" d="M2 10.6667V10C3.94667 10.6467 5.97333 10.9733 8 10.9733" stroke="var(--stroke-0, #0090FF)" stroke-linecap="round" stroke-linejoin="round"/>
<path id="Vector_5" d="M2 5.99998C5.89333 4.69998 10.1067 4.69998 14 5.99998" stroke="var(--stroke-0, #0090FF)" stroke-linecap="round" stroke-linejoin="round"/>
</g>
<g id="Group_2">
<path id="Vector_6" d="M12.1333 14.2667C13.3115 14.2667 14.2667 13.3115 14.2667 12.1333C14.2667 10.9551 13.3115 10 12.1333 10C10.9551 10 10 10.9551 10 12.1333C10 13.3115 10.9551 14.2667 12.1333 14.2667Z" stroke="var(--stroke-0, #0090FF)" stroke-linecap="round" stroke-linejoin="round"/>
<path id="Vector_7" d="M14.6667 14.6667L14 14" stroke="var(--stroke-0, #0090FF)" stroke-linecap="round" stroke-linejoin="round"/>
</g>
<g id="Vector_8" opacity="0">
</g>
</g>
</svg>
