<svg width="12" height="12" viewBox="0 0 12 12" fill="none" xmlns="http://www.w3.org/2000/svg">
<rect width="12" height="12" fill="#F5F5F5"/>
<g id="Iteration #2 - Redesign of right panel - Signals" clip-path="url(#clip0_40_45)">
<rect width="1512" height="982" transform="translate(-986 -501)" fill="#FAFAFA"/>
<g id="Frame 1618869237" filter="url(#filter0_d_40_45)">
<g clip-path="url(#clip1_40_45)">
<rect x="-46" y="-451" width="560" height="928" rx="12" fill="white"/>
<g id="Frame 1618869235">
<g id="Frame 1618869232">
<g id="Frame 1618869248">
<g id="Frame 1618869207">
<rect x="-21.5" y="-17.5" width="511" height="61" rx="11.5" stroke="#F4F4F4"/>
<g id="Frame 1618869242">
<g id="Frame 1618869223">
<rect x="-6" y="-6" width="24" height="24" rx="8" fill="#6977F4" fill-opacity="0.07"/>
<g id="auto-conversations">
<g id="elements">
<path id="Vector" d="M0.646447 8.64645C0.451184 8.84171 0.451184 9.15829 0.646447 9.35355C0.841709 9.54882 1.15829 9.54882 1.35355 9.35355L1 9L0.646447 8.64645ZM4.69891 6.55913L4.38656 6.94956V6.94956L4.69891 6.55913ZM5.75864 7.40691L5.4463 7.79735V7.79735L5.75864 7.40691ZM7.13075 7.29041L6.75704 6.95823V6.95823L7.13075 7.29041ZM10.8737 3.83218C11.0572 3.62579 11.0386 3.30975 10.8322 3.1263C10.6258 2.94284 10.3098 2.96143 10.1263 3.16782L10.5 3.5L10.8737 3.83218ZM6.48397 7.81123L6.52627 8.30944H6.52627L6.48397 7.81123ZM4.00946 6.17076L4.03711 6.67H4.03711L4.00946 6.17076ZM9 2.5C8.72386 2.5 8.5 2.72386 8.5 3C8.5 3.27614 8.72386 3.5 9 3.5V3V2.5ZM10.5 5C10.5 5.27615 10.7239 5.5 11 5.5C11.2761 5.5 11.5 5.27615 11.5 5H11H10.5ZM10.8536 3.14645L11.2071 2.79289L11.2071 2.79289L10.8536 3.14645ZM2.5 3.5C2.22386 3.5 2 3.72386 2 4C2 4.27614 2.22386 4.5 2.5 4.5V4V3.5ZM5.5 4.5C5.77614 4.5 6 4.27614 6 4C6 3.72386 5.77614 3.5 5.5 3.5V4V4.5ZM1 9L1.35355 9.35355L3.72066 6.98644L3.36711 6.63289L3.01356 6.27934L0.646447 8.64645L1 9ZM4.69891 6.55913L4.38656 6.94956L5.4463 7.79735L5.75864 7.40691L6.07099 7.01648L5.01126 6.16869L4.69891 6.55913ZM7.13075 7.29041L7.50445 7.62259L10.8737 3.83218L10.5 3.5L10.1263 3.16782L6.75704 6.95823L7.13075 7.29041ZM5.75864 7.40691L5.4463 7.79735C5.61106 7.92916 5.77235 8.05949 5.91965 8.14856C6.0793 8.2451 6.2804 8.33031 6.52627 8.30944L6.48397 7.81123L6.44167 7.31302C6.48871 7.30903 6.50265 7.33248 6.43709 7.29284C6.35918 7.24574 6.25722 7.16546 6.07099 7.01648L5.75864 7.40691ZM7.13075 7.29041L6.75704 6.95823C6.5986 7.13648 6.51163 7.23279 6.44278 7.29236C6.38485 7.34249 6.39462 7.31702 6.44167 7.31302L6.48397 7.81123L6.52627 8.30944C6.77215 8.28856 6.956 8.17066 7.09709 8.04859C7.22726 7.93596 7.36427 7.7803 7.50445 7.62259L7.13075 7.29041ZM3.36711 6.63289L3.72066 6.98644C3.88057 6.82653 3.96748 6.74099 4.03534 6.68855C4.09195 6.64481 4.08157 6.66754 4.03711 6.67L4.00946 6.17076L3.98181 5.67153C3.74656 5.68456 3.56552 5.78783 3.42391 5.89725C3.29356 5.99797 3.15469 6.13821 3.01356 6.27934L3.36711 6.63289ZM4.69891 6.55913L5.01126 6.16869C4.85541 6.04401 4.70189 5.91997 4.56122 5.83426C4.40839 5.74115 4.21705 5.6585 3.98181 5.67153L4.00946 6.17076L4.03711 6.67C3.99265 6.67246 3.97982 6.65102 4.04091 6.68824C4.11415 6.73287 4.20997 6.80829 4.38656 6.94956L4.69891 6.55913ZM9 3V3.5H10V3V2.5H9V3ZM11 4H10.5V5H11H11.5V4H11ZM10 3V3.5C10.2498 3.5 10.3869 3.50106 10.482 3.51385C10.5627 3.5247 10.5352 3.53516 10.5 3.5L10.8536 3.14645L11.2071 2.79289C11.0255 2.61129 10.8069 2.54852 10.6153 2.52276C10.438 2.49894 10.2216 2.5 10 2.5V3ZM11 4H11.5C11.5 3.77843 11.5011 3.56196 11.4772 3.38474C11.4515 3.19314 11.3887 2.9745 11.2071 2.79289L10.8536 3.14645L10.5 3.5C10.4648 3.46484 10.4753 3.43727 10.4862 3.51799C10.4989 3.61308 10.5 3.75016 10.5 4H11ZM2.5 4V4.5H5.5V4V3.5H2.5V4Z" fill="#6977F4"/>
</g>
</g>
</g>
</g>
</g>
</g>
</g>
</g>
</g>
</g>
</g>
<defs>
<filter id="filter0_d_40_45" x="-50" y="-453" width="568" height="936" filterUnits="userSpaceOnUse" color-interpolation-filters="sRGB">
<feFlood flood-opacity="0" result="BackgroundImageFix"/>
<feColorMatrix in="SourceAlpha" type="matrix" values="0 0 0 0 0 0 0 0 0 0 0 0 0 0 0 0 0 0 127 0" result="hardAlpha"/>
<feOffset dy="2"/>
<feGaussianBlur stdDeviation="2"/>
<feComposite in2="hardAlpha" operator="out"/>
<feColorMatrix type="matrix" values="0 0 0 0 0.133333 0 0 0 0 0.133333 0 0 0 0 0.133333 0 0 0 0.1 0"/>
<feBlend mode="normal" in2="BackgroundImageFix" result="effect1_dropShadow_40_45"/>
<feBlend mode="normal" in="SourceGraphic" in2="effect1_dropShadow_40_45" result="shape"/>
</filter>
<clipPath id="clip0_40_45">
<rect width="1512" height="982" fill="white" transform="translate(-986 -501)"/>
</clipPath>
<clipPath id="clip1_40_45">
<rect x="-46" y="-451" width="560" height="928" rx="12" fill="white"/>
</clipPath>
</defs>
</svg>
