<svg preserveAspectRatio="none" width="100%" height="100%" overflow="visible" style="display: block;" viewBox="0 0 14.3333 14.3335" fill="none" xmlns="http://www.w3.org/2000/svg">
<g id="elements">
<path id="Vector" d="M7.16667 13.8333C10.8486 13.8333 13.8333 10.8486 13.8333 7.16667C13.8333 3.48477 10.8485 0.5 7.16664 0.5C4.18155 0.5 1.68284 2.46193 0.833333 5.16667H2.5" stroke="var(--stroke-0, #9C9C9C)" stroke-linecap="round" stroke-linejoin="round"/>
<path id="Vector_2" d="M7.16667 4.5V7.16667L8.5 8.5" stroke="var(--stroke-0, #9C9C9C)" stroke-linecap="round" stroke-linejoin="round"/>
<path id="Vector_3" d="M0.5 7.16667C0.5 7.39153 0.510137 7.61391 0.529957 7.83333M5.16667 13.8333C4.93894 13.7584 4.71647 13.671 4.5 13.5718M1.30626 10.5C1.1777 10.2523 1.06302 9.9955 0.963315 9.73082M2.38748 12.0377C2.59126 12.2572 2.8087 12.4628 3.03836 12.6528" stroke="var(--stroke-0, #9C9C9C)" stroke-linecap="round" stroke-linejoin="round"/>
</g>
</svg>
