<svg preserveAspectRatio="none" width="100%" height="100%" overflow="visible" style="display: block;" viewBox="0 0 14.3333 13" fill="none" xmlns="http://www.w3.org/2000/svg">
<g id="elements">
<path id="Vector" d="M0.5 6.5C0.5 4.04058 0.5 2.81087 1.04254 1.93918C1.24327 1.61668 1.4926 1.33618 1.77927 1.11036C2.5541 0.5 3.64718 0.5 5.83333 0.5H8.5C10.6862 0.5 11.7792 0.5 12.5541 1.11036C12.8407 1.33618 13.0901 1.61668 13.2908 1.93918C13.8333 2.81087 13.8333 4.04058 13.8333 6.5C13.8333 8.95942 13.8333 10.1891 13.2908 11.0608C13.0901 11.3833 12.8407 11.6638 12.5541 11.8896C11.7792 12.5 10.6862 12.5 8.5 12.5H5.83333C3.64718 12.5 2.5541 12.5 1.77927 11.8896C1.4926 11.6638 1.24327 11.3833 1.04254 11.0608C0.5 10.1891 0.5 8.95942 0.5 6.5Z" stroke="var(--stroke-0, #9C9C9C)"/>
<path id="Vector_2" d="M5.5 0.5L5.5 12.5" stroke="var(--stroke-0, #9C9C9C)" stroke-linejoin="round"/>
<path id="Vector_3" d="M2.5 3.16667H3.16667M2.5 5.16667H3.16667" stroke="var(--stroke-0, #9C9C9C)" stroke-linecap="round" stroke-linejoin="round"/>
</g>
</svg>
