<svg width="16" height="16" viewBox="0 0 16 16" fill="none" xmlns="http://www.w3.org/2000/svg">
<rect width="16" height="16" fill="#F5F5F5"/>
<g id="Iteration #2 - Redesign of right panel - Activity" clip-path="url(#clip0_40_45)">
<rect width="1512" height="982" transform="translate(-980 -670)" fill="#FAFAFA"/>
<g id="Frame 1618869237" filter="url(#filter0_d_40_45)">
<g clip-path="url(#clip1_40_45)">
<rect x="-40" y="-620" width="560" height="928" rx="12" fill="white"/>
<g id="Frame 1618869235">
<g id="Frame 1618869231">
<g id="Frame 1618869251">
<g id="Frame 1618869204">
<rect x="-15.5" y="-63.5" width="511" height="91" rx="11.5" stroke="#F4F4F4"/>
<g id="Frame 1618869245">
<g id="Frame 1618869244">
<g id="Frame 1618869241">
<g id="thumbs-up">
<g id="elements">
<path id="Vector" d="M1.33203 7.99984C1.33203 7.26346 1.92898 6.6665 2.66536 6.6665C3.76993 6.6665 4.66536 7.56193 4.66536 8.6665V11.3332C4.66536 12.4377 3.76993 13.3332 2.66536 13.3332C1.92898 13.3332 1.33203 12.7362 1.33203 11.9998V7.99984Z" stroke="#838383" stroke-linecap="round" stroke-linejoin="round"/>
<path id="Vector_2" d="M10.3205 4.87084L10.1429 5.44423C9.99746 5.91407 9.92472 6.149 9.98065 6.33453C10.0259 6.48463 10.1253 6.61401 10.2606 6.69914C10.428 6.80436 10.6811 6.80436 11.1874 6.80436H11.4567C13.1701 6.80436 14.0268 6.80436 14.4314 7.31153C14.4777 7.3695 14.5188 7.43113 14.5544 7.49578C14.8656 8.06143 14.5117 8.82342 13.804 10.3474C13.1544 11.7459 12.8297 12.4452 12.2267 12.8568C12.1683 12.8966 12.1083 12.9342 12.0468 12.9694C11.412 13.3333 10.6254 13.3333 9.05224 13.3333H8.71103C6.80511 13.3333 5.85215 13.3333 5.26006 12.7596C4.66797 12.186 4.66797 11.2626 4.66797 9.41595V8.76689C4.66797 7.79642 4.66797 7.31119 4.8402 6.86706C5.01242 6.42294 5.3422 6.05776 6.00177 5.32741L8.72938 2.30704C8.79779 2.23129 8.832 2.19341 8.86215 2.16717C9.14366 1.92219 9.57812 1.94976 9.82424 2.22823C9.85061 2.25806 9.87942 2.29994 9.93704 2.38369C10.0272 2.5147 10.0723 2.5802 10.1115 2.6451C10.4632 3.22609 10.5696 3.91624 10.4085 4.57143C10.3905 4.64461 10.3671 4.72006 10.3205 4.87084Z" stroke="#838383" stroke-linecap="round" stroke-linejoin="round"/>
</g>
</g>
</g>
</g>
</g>
</g>
</g>
</g>
</g>
</g>
</g>
</g>
<defs>
<filter id="filter0_d_40_45" x="-44" y="-622" width="568" height="936" filterUnits="userSpaceOnUse" color-interpolation-filters="sRGB">
<feFlood flood-opacity="0" result="BackgroundImageFix"/>
<feColorMatrix in="SourceAlpha" type="matrix" values="0 0 0 0 0 0 0 0 0 0 0 0 0 0 0 0 0 0 127 0" result="hardAlpha"/>
<feOffset dy="2"/>
<feGaussianBlur stdDeviation="2"/>
<feComposite in2="hardAlpha" operator="out"/>
<feColorMatrix type="matrix" values="0 0 0 0 0.133333 0 0 0 0 0.133333 0 0 0 0 0.133333 0 0 0 0.1 0"/>
<feBlend mode="normal" in2="BackgroundImageFix" result="effect1_dropShadow_40_45"/>
<feBlend mode="normal" in="SourceGraphic" in2="effect1_dropShadow_40_45" result="shape"/>
</filter>
<clipPath id="clip0_40_45">
<rect width="1512" height="982" fill="white" transform="translate(-980 -670)"/>
</clipPath>
<clipPath id="clip1_40_45">
<rect x="-40" y="-620" width="560" height="928" rx="12" fill="white"/>
</clipPath>
</defs>
</svg>
