<svg preserveAspectRatio="none" width="100%" height="100%" overflow="visible" style="display: block;" viewBox="0 0 12.0833 12.6667" fill="none" xmlns="http://www.w3.org/2000/svg">
<g id="elements">
<path id="Vector" d="M9.54167 0.5V1.66667M2.54167 0.5V1.66667" stroke="var(--stroke-0, #323232)" stroke-linecap="round" stroke-linejoin="round"/>
<path id="Vector_2" d="M6.03905 6.91667H6.04428M6.03905 9.25H6.04428M8.36977 6.91667H8.375M3.70833 6.91667H3.71357M3.70833 9.25H3.71357" stroke="var(--stroke-0, #323232)" stroke-linecap="round" stroke-linejoin="round"/>
<path id="Vector_3" d="M1.08333 4H11" stroke="var(--stroke-0, #323232)" stroke-linecap="round" stroke-linejoin="round"/>
<path id="Vector_4" d="M0.5 6.47523C0.5 3.93346 0.5 2.66258 1.2304 1.87296C1.96081 1.08333 3.13637 1.08333 5.4875 1.08333H6.59583C8.94696 1.08333 10.1225 1.08333 10.8529 1.87296C11.5833 2.66258 11.5833 3.93346 11.5833 6.47523V6.77477C11.5833 9.31654 11.5833 10.5874 10.8529 11.377C10.1225 12.1667 8.94696 12.1667 6.59583 12.1667H5.4875C3.13637 12.1667 1.96081 12.1667 1.2304 11.377C0.5 10.5874 0.5 9.31654 0.5 6.77477V6.47523Z" stroke="var(--stroke-0, #323232)" stroke-linecap="round" stroke-linejoin="round"/>
<path id="Vector_5" d="M0.791667 4H11.2917" stroke="var(--stroke-0, #323232)" stroke-linecap="round" stroke-linejoin="round"/>
</g>
</svg>
