<svg preserveAspectRatio="none" width="100%" height="100%" overflow="visible" style="display: block;" viewBox="0 0 13.5 13.496" fill="none" xmlns="http://www.w3.org/2000/svg">
<g id="music-equalizer--music-audio-note-wave-sound-equalizer-entertainment">
<path id="Union" fill-rule="evenodd" clip-rule="evenodd" d="M7.5 0.75C7.5 0.551088 7.42098 0.360322 7.28033 0.21967C7.13968 0.0790176 6.94891 0 6.75 0C6.55109 0 6.36032 0.0790176 6.21967 0.21967C6.07902 0.360322 6 0.551088 6 0.75V12.746C6 12.9449 6.07902 13.1357 6.21967 13.2763C6.36032 13.417 6.55109 13.496 6.75 13.496C6.94891 13.496 7.13968 13.417 7.28033 13.2763C7.42098 13.1357 7.5 12.9449 7.5 12.746V0.75ZM3.75 2.308C3.94891 2.308 4.13968 2.38702 4.28033 2.52767C4.42098 2.66832 4.5 2.85909 4.5 3.058V10.44C4.5 10.6389 4.42098 10.8297 4.28033 10.9703C4.13968 11.111 3.94891 11.19 3.75 11.19C3.55109 11.19 3.36032 11.111 3.21967 10.9703C3.07902 10.8297 3 10.6389 3 10.44V3.057C3 2.85809 3.07902 2.66732 3.21967 2.52667C3.36032 2.38602 3.55109 2.308 3.75 2.308ZM0.75 4.614C0.948912 4.614 1.13968 4.69302 1.28033 4.83367C1.42098 4.97432 1.5 5.16509 1.5 5.364V8.132C1.5 8.23049 1.4806 8.32802 1.44291 8.41901C1.40522 8.51001 1.34997 8.59269 1.28033 8.66233C1.21069 8.73197 1.12801 8.78722 1.03701 8.82491C0.946018 8.8626 0.848491 8.882 0.75 8.882C0.651509 8.882 0.553982 8.8626 0.462987 8.82491C0.371993 8.78722 0.289314 8.73197 0.21967 8.66233C0.150026 8.59269 0.0947814 8.51001 0.0570903 8.41901C0.0193993 8.32802 -1.46764e-09 8.23049 0 8.132V5.364C0 5.16509 0.0790176 4.97432 0.21967 4.83367C0.360322 4.69302 0.551088 4.614 0.75 4.614ZM9.75 2.307C9.94891 2.307 10.1397 2.38602 10.2803 2.52667C10.421 2.66732 10.5 2.85809 10.5 3.057V10.439C10.5 10.6379 10.421 10.8287 10.2803 10.9693C10.1397 11.11 9.94891 11.189 9.75 11.189C9.55109 11.189 9.36032 11.11 9.21967 10.9693C9.07902 10.8287 9 10.6379 9 10.439V3.057C9 2.85809 9.07902 2.66732 9.21967 2.52667C9.36032 2.38602 9.55109 2.307 9.75 2.307ZM13.5 5.364C13.5 5.16509 13.421 4.97432 13.2803 4.83367C13.1397 4.69302 12.9489 4.614 12.75 4.614C12.5511 4.614 12.3603 4.69302 12.2197 4.83367C12.079 4.97432 12 5.16509 12 5.364V8.132C12 8.33091 12.079 8.52168 12.2197 8.66233C12.3603 8.80298 12.5511 8.882 12.75 8.882C12.9489 8.882 13.1397 8.80298 13.2803 8.66233C13.421 8.52168 13.5 8.33091 13.5 8.132V5.364Z" fill="var(--fill-0, #777777)"/>
</g>
</svg>
