<svg preserveAspectRatio="xMidYMid meet" width="100%" height="100%" overflow="visible" style="display: block;" viewBox="0 0 12.6667 12.6666" fill="none" xmlns="http://www.w3.org/2000/svg">
<g id="elements">
<path id="Vector" d="M8.66667 7.5L9.92048 7.12386C10.7215 6.88355 11.122 6.7634 11.3527 6.45338C11.5833 6.14337 11.5833 5.72522 11.5833 4.88893V0.500001" stroke="var(--stroke-0, #838383)" stroke-linejoin="round"/>
<path id="Vector_2" d="M4 8.08333L5.75 8.08333M4 5.75L5.75 5.75" stroke="var(--stroke-0, #838383)" stroke-linecap="round" stroke-linejoin="round"/>
<path id="Vector_3" d="M6.33333 0.5V2.25C6.33333 2.79997 6.33333 3.07496 6.16248 3.24581C5.99162 3.41667 5.71664 3.41667 5.16667 3.41667H4.58333C4.03336 3.41667 3.75838 3.41667 3.58752 3.24581C3.41667 3.07496 3.41667 2.79997 3.41667 2.25L3.41667 0.5" stroke="var(--stroke-0, #838383)" stroke-linejoin="round"/>
<path id="Vector_4" d="M0.5 0.5L12.1667 0.5" stroke="var(--stroke-0, #838383)" stroke-linecap="round"/>
<path id="Vector_5" d="M1.08333 0.5L1.08333 9.41494C1.08333 10.8795 1.08333 11.6119 1.54486 11.9752C2.00638 12.3385 2.68599 12.1413 4.04522 11.7467L6.96189 10.9001C7.78212 10.662 8.19224 10.543 8.42945 10.2185C8.66667 9.89408 8.66667 9.45216 8.66667 8.56834L8.66667 0.5" stroke="var(--stroke-0, #838383)" stroke-linecap="round" stroke-linejoin="round"/>
</g>
</svg>
