<svg preserveAspectRatio="xMidYMid meet" width="100%" height="100%" overflow="visible" style="display: block;" viewBox="0 0 12.6667 11.5" fill="none" xmlns="http://www.w3.org/2000/svg">
<g id="elements">
<path id="Vector" d="M0.533256 1.15683L1.66951 10.008C1.77335 10.8169 1.97849 11 2.8078 11C3.6371 11 3.84225 10.8169 3.94609 10.008L5.16666 0.500015H1.11827C0.806368 0.500015 0.650415 0.500015 0.562367 0.598869C0.474318 0.697724 0.493964 0.850759 0.533256 1.15683Z" stroke="var(--stroke-0, #838383)" stroke-linecap="round" stroke-linejoin="round"/>
<path id="Vector_2" d="M5.25632 0.500014H11.5833C11.8583 0.500014 11.9958 0.500014 12.0812 0.585441C12.1667 0.670869 12.1667 0.808362 12.1667 1.08335V8.66668L9.62343 6.54733C9.20952 6.2024 9.00257 6.02994 8.83461 6.1086C8.66666 6.18727 8.66666 6.45667 8.66666 6.99546V8.66668L6.07196 6.77963C5.76771 6.55836 5.61559 6.44772 5.43973 6.39053C5.26387 6.33335 5.07577 6.33335 4.69956 6.33335H4.58333" stroke="var(--stroke-0, #838383)" stroke-linecap="round" stroke-linejoin="round"/>
<path id="Vector_3" d="M1.66666 9.25001H3.99999" stroke="var(--stroke-0, #838383)" stroke-linecap="round" stroke-linejoin="round"/>
<path id="Vector_4" d="M6.33333 4.00001L7.49999 4.00001" stroke="var(--stroke-0, #838383)" stroke-linecap="round" stroke-linejoin="round"/>
<path id="Vector_5" d="M9.24999 4.00001H10.4167" stroke="var(--stroke-0, #838383)" stroke-linecap="round" stroke-linejoin="round"/>
</g>
</svg>
