<svg preserveAspectRatio="xMidYMid meet" width="100%" height="100%" overflow="visible" style="display: block;" viewBox="0 0 12.6665 12.6667" fill="none" xmlns="http://www.w3.org/2000/svg">
<g id="elements">
<path id="Vector" d="M5.75378 11.5834H4.93652C2.84513 11.5834 1.79943 11.5834 1.14971 10.9213C0.500001 10.2593 0.500001 9.19371 0.500001 7.06257C0.500001 4.93143 0.500001 3.86586 1.14971 3.2038C1.79943 2.54174 2.84513 2.54174 4.93652 2.54174H7.15478C9.24618 2.54174 10.2919 2.54174 10.9416 3.2038C11.4415 3.71318 11.5567 4.46143 11.5833 5.75007" stroke="var(--stroke-0, #838383)" stroke-linecap="round"/>
<path id="Vector_2" d="M11.0098 11.0136L12.1665 12.1667M11.6141 9.55714C11.6141 8.42102 10.6931 7.5 9.55701 7.5C8.42088 7.5 7.49986 8.42102 7.49986 9.55714C7.49986 10.6933 8.42088 11.6143 9.55701 11.6143C10.6931 11.6143 11.6141 10.6933 11.6141 9.55714Z" stroke="var(--stroke-0, #838383)" stroke-linecap="round" stroke-linejoin="round"/>
<path id="Vector_3" d="M8.66653 2.54167L8.60858 2.36138C8.31982 1.46302 8.17544 1.01384 7.83172 0.756922C7.48799 0.500001 7.03142 0.500001 6.11829 0.500001H5.96477C5.05164 0.500001 4.59507 0.500001 4.25134 0.756922C3.90762 1.01384 3.76324 1.46302 3.47448 2.36138L3.41653 2.54167" stroke="var(--stroke-0, #838383)"/>
</g>
</svg>
