<svg preserveAspectRatio="xMidYMid meet" width="100%" height="100%" overflow="visible" style="display: block;" viewBox="0 0 12.0833 12.0833" fill="none" xmlns="http://www.w3.org/2000/svg">
<g id="elements">
<path id="Vector" d="M6.04281 4.29167C5.39847 4.29167 4.87614 4.68342 4.87614 5.16667C4.87614 5.64992 5.39847 6.04167 6.04281 6.04167C6.68714 6.04167 7.20947 6.43342 7.20947 6.91667C7.20947 7.39992 6.68714 7.79167 6.04281 7.79167M6.04281 4.29167C6.55078 4.29167 6.98293 4.53515 7.14309 4.875M6.04281 4.29167V3.70833M6.04281 7.79167C5.53483 7.79167 5.10268 7.54818 4.94253 7.20833M6.04281 7.79167V8.375" stroke="var(--stroke-0, #838383)" stroke-linecap="round"/>
<path id="Vector_2" d="M6.625 0.5C6.625 0.5 6.44061 0.500003 6.04167 0.500003C3.4293 0.500003 2.12312 0.500003 1.31156 1.31156C0.5 2.12312 0.5 3.4293 0.5 6.04167C0.5 8.65404 0.5 9.96022 1.31156 10.7718C2.12312 11.5833 3.4293 11.5833 6.04167 11.5833C8.65403 11.5833 9.96022 11.5833 10.7718 10.7718C11.5833 9.96022 11.5833 8.65404 11.5833 6.04167C11.5833 5.64273 11.5833 5.45833 11.5833 5.45833" stroke="var(--stroke-0, #838383)" stroke-linecap="round"/>
<path id="Vector_3" d="M8.58193 2.76983C8.38576 2.96419 8.38429 3.28077 8.57865 3.47693C8.773 3.6731 9.08958 3.67457 9.28575 3.48021L8.93384 3.12502L8.58193 2.76983ZM11.9352 0.855193C12.1314 0.660839 12.1329 0.34426 11.9385 0.148094C11.7442 -0.0480721 11.4276 -0.0495412 11.2314 0.144813L11.5833 0.500003L11.9352 0.855193ZM9.23347 3.28424L9.32067 2.7919H9.32067L9.23347 3.28424ZM8.79921 2.84984L8.30686 2.93694V2.93694L8.79921 2.84984ZM11.2849 3.9142C11.561 3.91798 11.7879 3.69721 11.7917 3.42109C11.7955 3.14497 11.5747 2.91807 11.2986 2.9143L11.2918 3.41425L11.2849 3.9142ZM9.16918 0.784816C9.16538 0.508699 8.93847 0.287941 8.66235 0.291739C8.38623 0.295536 8.16548 0.522451 8.16927 0.798568L8.66923 0.791692L9.16918 0.784816ZM8.93384 3.12502L9.28575 3.48021L11.9352 0.855193L11.5833 0.500003L11.2314 0.144813L8.58193 2.76983L8.93384 3.12502ZM9.23347 3.28424L9.32067 2.7919C9.31132 2.79024 9.30593 2.78793 9.30342 2.78664C9.30092 2.78536 9.29989 2.78439 9.2995 2.784C9.29911 2.78361 9.29813 2.78257 9.29684 2.78005C9.29554 2.77752 9.29322 2.77211 9.29156 2.76273L8.79921 2.84984L8.30686 2.93694C8.38381 3.37191 8.71117 3.69952 9.14628 3.77658L9.23347 3.28424ZM9.23347 3.28424L9.14628 3.77658C9.74414 3.88246 10.798 3.90754 11.2849 3.9142L11.2918 3.41425L11.2986 2.9143C10.7913 2.90735 9.8234 2.88093 9.32067 2.7919L9.23347 3.28424ZM8.66923 0.791692L8.16927 0.798568C8.17597 1.28543 8.2011 2.33918 8.30686 2.93694L8.79921 2.84984L9.29156 2.76273C9.20262 2.25996 9.17616 1.29212 9.16918 0.784816L8.66923 0.791692Z" fill="var(--stroke-0, #838383)"/>
</g>
</svg>
