<svg preserveAspectRatio="none" width="100%" height="100%" overflow="visible" style="display: block;" viewBox="0 0 11.5 11.5" fill="none" xmlns="http://www.w3.org/2000/svg">
<g id="elements">
<path id="Vector" d="M3.91684 6.04522C2.46524 4.95994 1.43078 3.76618 0.865936 3.09506C0.691087 2.88731 0.633795 2.73527 0.599347 2.46747C0.48139 1.55047 0.422411 1.09197 0.691296 0.795987C0.96018 0.500003 1.43568 0.500003 2.38668 0.500003H9.1133C10.0643 0.500003 10.5398 0.500003 10.8087 0.795987C11.0776 1.09197 11.0186 1.55047 10.9006 2.46747C10.8662 2.73528 10.8089 2.88732 10.634 3.09506C10.0684 3.76703 9.03187 4.96292 7.57732 6.04957C7.44573 6.14788 7.35899 6.3081 7.3429 6.48582C7.1988 8.07865 7.06593 8.9511 6.98322 9.39245C6.84972 10.105 5.83934 10.5337 5.29849 10.9162C4.97652 11.1439 4.58583 10.8728 4.54411 10.5204C4.46457 9.84857 4.31476 8.48372 4.15123 6.48582C4.13654 6.30647 4.04949 6.14438 3.91684 6.04522Z" stroke="var(--stroke-0, #969696)" stroke-linecap="round" stroke-linejoin="round"/>
</g>
</svg>
