<svg preserveAspectRatio="xMidYMid meet" width="100%" height="100%" overflow="visible" style="display: block;" viewBox="0 0 13.8334 10.3333" fill="none" xmlns="http://www.w3.org/2000/svg">
<g id="elements">
<path id="Vector" d="M12.0349 8.66667C12.472 8.66667 12.8196 8.39161 13.1318 8.007C13.7708 7.21968 12.7216 6.59049 12.3215 6.28235C11.9147 5.96911 11.4605 5.79166 11 5.75M10.4167 4.58333C11.2221 4.58333 11.875 3.93042 11.875 3.125C11.875 2.31958 11.2221 1.66667 10.4167 1.66667" stroke="var(--stroke-0, #838383)" stroke-linecap="round"/>
<path id="Vector_2" d="M1.7985 8.66667C1.36141 8.66667 1.01375 8.39161 0.701598 8.007C0.0625809 7.21968 1.11175 6.59049 1.51191 6.28235C1.91868 5.96911 2.37287 5.79166 2.83336 5.75M3.12503 4.58333C2.31961 4.58333 1.6667 3.93042 1.6667 3.125C1.6667 2.31958 2.31961 1.66667 3.12503 1.66667" stroke="var(--stroke-0, #838383)" stroke-linecap="round"/>
<path id="Vector_3" d="M4.63223 6.98153C4.03619 7.35008 2.47342 8.10263 3.42525 9.04433C3.89021 9.50434 4.40806 9.83333 5.05913 9.83333H8.77423C9.42529 9.83333 9.94314 9.50434 10.4081 9.04433C11.3599 8.10263 9.79716 7.35008 9.20112 6.98153C7.80343 6.11727 6.02993 6.11727 4.63223 6.98153Z" stroke="var(--stroke-0, #838383)" stroke-linecap="round" stroke-linejoin="round"/>
<path id="Vector_4" d="M8.95834 2.54167C8.95834 3.66925 8.04426 4.58333 6.91668 4.58333C5.78909 4.58333 4.87501 3.66925 4.87501 2.54167C4.87501 1.41409 5.78909 0.5 6.91668 0.5C8.04426 0.5 8.95834 1.41409 8.95834 2.54167Z" stroke="var(--stroke-0, #838383)"/>
</g>
</svg>
