<svg preserveAspectRatio="xMidYMid meet" width="100%" height="100%" overflow="visible" style="display: block;" viewBox="0 0 12.0833 12.0833" fill="none" xmlns="http://www.w3.org/2000/svg">
<g id="elements">
<path id="Vector" d="M5.52102 9.78886C5.67367 9.52588 5.75 9.39439 5.75 9.25C5.75 9.10562 5.67367 8.97412 5.52102 8.71114L4.79219 7.45553C4.63954 7.19255 4.56322 7.06106 4.4375 6.98886C4.31178 6.91667 4.15913 6.91667 3.85383 6.91667H2.39617C2.09087 6.91667 1.93822 6.91667 1.8125 6.98886C1.68678 7.06106 1.61046 7.19255 1.45781 7.45553L0.728975 8.71114C0.576325 8.97412 0.5 9.10562 0.5 9.25C0.5 9.39439 0.576325 9.52588 0.728976 9.78886L1.45781 11.0445C1.61046 11.3075 1.68678 11.4389 1.8125 11.5111C1.93822 11.5833 2.09087 11.5833 2.39617 11.5833L3.85383 11.5833C4.15913 11.5833 4.31178 11.5833 4.4375 11.5111C4.56322 11.4389 4.63954 11.3075 4.79219 11.0445L5.52102 9.78886Z" stroke="var(--stroke-0, #838383)" stroke-linecap="round" stroke-linejoin="round"/>
<path id="Vector_2" d="M11.3544 6.28886C11.507 6.02588 11.5833 5.89439 11.5833 5.75C11.5833 5.60562 11.507 5.47413 11.3544 5.21114L10.6255 3.95553C10.4729 3.69255 10.3965 3.56106 10.2708 3.48886C10.1451 3.41667 9.99247 3.41667 9.68717 3.41667H8.2295C7.9242 3.41667 7.77155 3.41667 7.64583 3.48886C7.52012 3.56106 7.44379 3.69255 7.29114 3.95553L6.56231 5.21114C6.40966 5.47413 6.33333 5.60562 6.33333 5.75C6.33333 5.89439 6.40966 6.02588 6.56231 6.28886L7.29114 7.54448C7.44379 7.80746 7.52012 7.93895 7.64583 8.01114C7.77155 8.08334 7.9242 8.08334 8.2295 8.08334L9.68717 8.08334C9.99247 8.08334 10.1451 8.08334 10.2708 8.01114C10.3965 7.93895 10.4729 7.80746 10.6255 7.54448L11.3544 6.28886Z" stroke="var(--stroke-0, #838383)" stroke-linecap="round" stroke-linejoin="round"/>
<path id="Vector_3" d="M5.52102 3.3722C5.67367 3.10922 5.75 2.97772 5.75 2.83334C5.75 2.68895 5.67367 2.55746 5.52102 2.29448L4.79219 1.03886C4.63954 0.775882 4.56322 0.644391 4.4375 0.572198C4.31178 0.500004 4.15913 0.500004 3.85383 0.500004H2.39617C2.09087 0.500004 1.93822 0.500004 1.8125 0.572198C1.68678 0.644391 1.61046 0.775882 1.45781 1.03886L0.728975 2.29448C0.576325 2.55746 0.5 2.68895 0.5 2.83334C0.5 2.97772 0.576325 3.10922 0.728976 3.3722L1.45781 4.62781C1.61046 4.89079 1.68678 5.02228 1.8125 5.09448C1.93822 5.16667 2.09087 5.16667 2.39617 5.16667L3.85383 5.16667C4.15913 5.16667 4.31178 5.16667 4.4375 5.09448C4.56322 5.02228 4.63954 4.89079 4.79219 4.62781L5.52102 3.3722Z" stroke="var(--stroke-0, #838383)" stroke-linecap="round" stroke-linejoin="round"/>
</g>
</svg>
