<svg preserveAspectRatio="xMidYMid meet" width="100%" height="100%" overflow="visible" style="display: block;" viewBox="0 0 12.0833 12.0833" fill="none" xmlns="http://www.w3.org/2000/svg">
<g id="elements">
<path id="Vector" d="M8.375 4.875L9.09048 5.49169C9.39127 5.75095 9.54167 5.88058 9.54167 6.04167C9.54167 6.20275 9.39127 6.33238 9.09048 6.59164L8.375 7.20833" stroke="var(--stroke-0, #838383)" stroke-linecap="round" stroke-linejoin="round"/>
<path id="Vector_2" d="M3.70833 4.875L2.99285 5.49169C2.69206 5.75095 2.54167 5.88058 2.54167 6.04167C2.54167 6.20275 2.69206 6.33238 2.99285 6.59164L3.70833 7.20833" stroke="var(--stroke-0, #838383)" stroke-linecap="round" stroke-linejoin="round"/>
<path id="Vector_3" d="M6.625 4.29167L5.45833 7.79167" stroke="var(--stroke-0, #838383)" stroke-linecap="round" stroke-linejoin="round"/>
<path id="Vector_4" d="M0.5 6.04167C0.5 3.4293 0.5 2.12312 1.31156 1.31156C2.12312 0.5 3.4293 0.5 6.04167 0.5C8.65403 0.5 9.96022 0.5 10.7718 1.31156C11.5833 2.12312 11.5833 3.4293 11.5833 6.04167C11.5833 8.65403 11.5833 9.96022 10.7718 10.7718C9.96022 11.5833 8.65403 11.5833 6.04167 11.5833C3.4293 11.5833 2.12312 11.5833 1.31156 10.7718C0.5 9.96022 0.5 8.65403 0.5 6.04167Z" stroke="var(--stroke-0, #838383)"/>
</g>
</svg>
