<svg preserveAspectRatio="none" width="100%" height="100%" overflow="visible" style="display: block;" viewBox="0 0 13.6955 13.6958" fill="none" xmlns="http://www.w3.org/2000/svg">
<g id="magic-wand-1--sselection-wand-object-work">
<path id="Union" fill-rule="evenodd" clip-rule="evenodd" d="M7.67036 0.0153051C8.0762 -0.0675491 8.47237 0.194284 8.55522 0.600126L8.87855 2.18385C8.9614 2.5897 8.69957 2.98586 8.29373 3.06872C7.88788 3.15157 7.49172 2.88974 7.40886 2.4839L7.08554 0.900169C7.00268 0.494327 7.26452 0.0981601 7.67036 0.0153051ZM12.4384 1.25717C12.7313 1.55007 12.7313 2.02494 12.4384 2.31783L11.2954 3.4608C11.0025 3.75369 10.5277 3.75369 10.2348 3.4608C9.94186 3.1679 9.94186 2.69303 10.2348 2.40014L11.3777 1.25717C11.6706 0.964279 12.1455 0.964279 12.4384 1.25717ZM8.62171 5.07407C8.9146 5.36696 8.9146 5.84183 8.62171 6.13473L1.28033 13.4761C0.987436 13.769 0.512563 13.769 0.21967 13.4761C-0.0732235 13.1832 -0.0732232 12.7083 0.21967 12.4154L7.56105 5.07407C7.85394 4.78117 8.32881 4.78117 8.62171 5.07407ZM5.44275 1.89511C5.14986 1.60222 4.67498 1.60222 4.38209 1.89511C4.0892 2.18801 4.0892 2.66288 4.38209 2.95577L5.52505 4.09874C5.81795 4.39163 6.29282 4.39163 6.58571 4.09874C6.87861 3.80584 6.87861 3.33097 6.58571 3.03807L5.44275 1.89511ZM11.8007 9.31368C12.0936 9.02079 12.0936 8.54591 11.8007 8.25302L10.6577 7.11006C10.3648 6.81717 9.88996 6.81717 9.59704 7.11006C9.30415 7.40295 9.30415 7.87783 9.59704 8.17072L10.74 9.31368C11.0329 9.60658 11.5078 9.60658 11.8007 9.31368ZM13.0954 5.14031C13.5013 5.22316 13.7631 5.61933 13.6803 6.02517C13.5974 6.43101 13.2012 6.69285 12.7954 6.60999L11.2117 6.28667C10.8058 6.20381 10.544 5.80764 10.6269 5.4018C10.7097 4.99596 11.1059 4.73413 11.5117 4.81698L13.0954 5.14031Z" fill="var(--fill-0, #979797)"/>
</g>
</svg>
