<svg preserveAspectRatio="none" width="100%" height="100%" overflow="visible" style="display: block;" viewBox="0 0 14.3333 14.3333" fill="none" xmlns="http://www.w3.org/2000/svg">
<g id="elements">
<path id="Vector" d="M5.16667 9.16667C5.16667 7.28105 5.16667 6.33824 5.75245 5.75245C6.33824 5.16667 7.28105 5.16667 9.16667 5.16667L9.83333 5.16667C11.719 5.16667 12.6618 5.16667 13.2475 5.75245C13.8333 6.33824 13.8333 7.28105 13.8333 9.16667V9.83333C13.8333 11.719 13.8333 12.6618 13.2475 13.2475C12.6618 13.8333 11.719 13.8333 9.83333 13.8333H9.16667C7.28105 13.8333 6.33824 13.8333 5.75245 13.2475C5.16667 12.6618 5.16667 11.719 5.16667 9.83333L5.16667 9.16667Z" stroke="var(--stroke-0, #777777)" stroke-linecap="round" stroke-linejoin="round"/>
<path id="Vector_2" d="M10.4999 5.16667C10.4984 3.19527 10.4685 2.17414 9.8947 1.47495C9.78388 1.33993 9.66007 1.21612 9.52505 1.10531C8.78748 0.500001 7.69166 0.500001 5.5 0.5C3.30835 0.5 2.21252 0.5 1.47495 1.10531C1.33993 1.21612 1.21612 1.33993 1.10531 1.47495C0.500001 2.21252 0.500001 3.30835 0.5 5.5C0.5 7.69165 0.5 8.78748 1.10531 9.52505C1.21612 9.66007 1.33993 9.78388 1.47495 9.89469C2.17414 10.4685 3.19527 10.4984 5.16667 10.4999" stroke="var(--stroke-0, #777777)" stroke-linecap="round" stroke-linejoin="round"/>
</g>
</svg>
