<svg preserveAspectRatio="none" width="100%" height="100%" overflow="visible" style="display: block;" viewBox="0 0 13 14.3333" fill="none" xmlns="http://www.w3.org/2000/svg">
<g id="elements">
<path id="Vector" d="M11.5 2.83333L11.0868 9.51673C10.9813 11.2243 10.9285 12.0781 10.5005 12.6919C10.2889 12.9954 10.0164 13.2515 9.70047 13.444C9.06141 13.8333 8.20599 13.8333 6.49516 13.8333C4.78208 13.8333 3.92554 13.8333 3.28604 13.4433C2.96987 13.2504 2.69733 12.9939 2.48579 12.6899C2.05792 12.0751 2.0063 11.2201 1.90307 9.5101L1.5 2.83333" stroke="var(--stroke-0, #777777)" stroke-linecap="round"/>
<path id="Vector_2" d="M0.5 2.83333H12.5M9.20382 2.83333L8.7487 1.89449C8.44638 1.27084 8.29522 0.959015 8.03448 0.764538C7.97664 0.721401 7.9154 0.683029 7.85135 0.649801C7.56261 0.500001 7.21608 0.500001 6.52302 0.500001C5.81255 0.500001 5.45732 0.500001 5.16379 0.656081C5.09873 0.690673 5.03666 0.730598 4.9782 0.775446C4.71443 0.977801 4.56709 1.30104 4.2724 1.94751L3.86862 2.83333" stroke="var(--stroke-0, #777777)" stroke-linecap="round"/>
<path id="Vector_3" d="M4.83333 10.1667L4.83333 6.16667" stroke="var(--stroke-0, #777777)" stroke-linecap="round"/>
<path id="Vector_4" d="M8.16667 10.1667L8.16667 6.16667" stroke="var(--stroke-0, #777777)" stroke-linecap="round"/>
</g>
</svg>
