<svg width="18" height="18" viewBox="0 0 18 18" fill="none" xmlns="http://www.w3.org/2000/svg">
  <g transform="translate(1.125 1.125) scale(0.954545)">
    <path d="M15.2197 14.7803C15.5126 15.0732 15.9874 15.0732 16.2803 14.7803C16.5732 14.4874 16.5732 14.0126 16.2803 13.7197L15.75 14.25L15.2197 14.7803ZM13.95 12.45L13.4197 12.9803L15.2197 14.7803L15.75 14.25L16.2803 13.7197L14.4803 11.9197L13.95 12.45ZM14.85 9.3H15.6C15.6 6.64903 13.451 4.5 10.8 4.5V5.25V6C12.6225 6 14.1 7.47746 14.1 9.3H14.85ZM10.8 5.25V4.5C8.14903 4.5 6 6.64903 6 9.3H6.75H7.5C7.5 7.47746 8.97746 6 10.8 6V5.25ZM6.75 9.3H6C6 11.951 8.14903 14.1 10.8 14.1V13.35V12.6C8.97746 12.6 7.5 11.1225 7.5 9.3H6.75ZM10.8 13.35V14.1C13.451 14.1 15.6 11.951 15.6 9.3H14.85H14.1C14.1 11.1225 12.6225 12.6 10.8 12.6V13.35Z" fill="#0090FF"/>
    <path d="M0.750004 5.25C0.33579 5.25 2.20728e-06 5.58578 0 5.99999C-2.20728e-06 6.41421 0.335782 6.75 0.749996 6.75L0.75 6L0.750004 5.25ZM4.5 6.75004C4.91421 6.75004 5.25 6.41426 5.25 6.00004C5.25 5.58583 4.91422 5.25004 4.5 5.25004L4.5 6.00004L4.5 6.75004ZM0.75 6L0.749996 6.75L4.5 6.75004L4.5 6.00004L4.5 5.25004L0.750004 5.25L0.75 6Z" fill="#0090FF"/>
    <path d="M0.75 11.25H4.5" stroke="#0090FF" stroke-width="1.5" stroke-linecap="round" stroke-linejoin="round"/>
    <path d="M0.75 0.75H13.5" stroke="#0090FF" stroke-width="1.5" stroke-linecap="round" stroke-linejoin="round"/>
  </g>
</svg>
