<svg preserveAspectRatio="none" width="100%" height="100%" overflow="visible" style="display: block;" viewBox="0 0 14.0001 14.3333" fill="none" xmlns="http://www.w3.org/2000/svg">
<g id="elements">
<path id="Vector" d="M13.17 3.92239L12.8409 3.35132C12.5921 2.91944 12.4676 2.70349 12.2559 2.61738C12.0442 2.53127 11.8048 2.59922 11.3259 2.73512L10.5124 2.96425C10.2067 3.03475 9.88588 2.99476 9.60672 2.85132L9.38213 2.72174C9.14274 2.56842 8.95861 2.34235 8.85669 2.07662L8.63405 1.4117C8.48767 0.971687 8.41448 0.751681 8.24023 0.625842C8.06598 0.500004 7.83452 0.500004 7.37162 0.500004H6.62843C6.16553 0.500004 5.93408 0.500004 5.75983 0.625842C5.58558 0.751681 5.51239 0.971687 5.366 1.4117L5.14336 2.07662C5.04144 2.34235 4.85731 2.56842 4.61792 2.72174L4.39333 2.85132C4.11417 2.99476 3.7934 3.03475 3.48767 2.96425L2.67417 2.73512C2.19529 2.59922 1.95584 2.53127 1.74412 2.61738C1.53241 2.70349 1.40798 2.91944 1.15911 3.35132L0.830054 3.92239C0.596781 4.32722 0.480145 4.52964 0.502782 4.74512C0.525419 4.9606 0.681563 5.13425 0.99385 5.48154L1.68121 6.25001C1.84921 6.46269 1.96848 6.83334 1.96848 7.16656C1.96848 7.5 1.84925 7.87054 1.68123 8.08326L0.993853 8.85174C0.681565 9.19904 0.525421 9.37268 0.502783 9.58816C0.480145 9.80364 0.596785 10.0061 0.830055 10.4109L1.1591 10.9819C1.40796 11.4138 1.53241 11.6298 1.74412 11.7159C1.95584 11.802 2.19529 11.734 2.67419 11.5981L3.48764 11.369C3.79343 11.2985 4.11425 11.3385 4.39346 11.482L4.61801 11.6116C4.85735 11.7649 5.04144 11.991 5.14334 12.2567L5.366 12.9216C5.51239 13.3617 5.58558 13.5817 5.75983 13.7075C5.93408 13.8333 6.16553 13.8333 6.62843 13.8333H7.37162C7.83452 13.8333 8.06598 13.8333 8.24023 13.7075C8.41448 13.5817 8.48767 13.3617 8.63405 12.9216L8.85671 12.2567C8.95862 11.991 9.14271 11.7649 9.38205 11.6116L9.6066 11.482C9.8858 11.3385 10.2066 11.2985 10.5124 11.369L11.3259 11.5981C11.8048 11.734 12.0442 11.802 12.2559 11.7159C12.4676 11.6298 12.5921 11.4138 12.8409 10.982L12.841 10.9819L13.17 10.4109C13.4033 10.0061 13.5199 9.80364 13.4973 9.58816C13.4746 9.37268 13.3185 9.19904 13.0062 8.85174L12.3188 8.08326C12.1508 7.87054 12.0316 7.5 12.0316 7.16656C12.0316 6.83334 12.1508 6.46269 12.3188 6.25001L13.0062 5.48154C13.3185 5.13425 13.4746 4.9606 13.4973 4.74512C13.5199 4.52964 13.4033 4.32722 13.17 3.92239Z" stroke="var(--stroke-0, #9C9C9C)" stroke-linecap="round"/>
<path id="Vector_2" d="M9.3047 7.16146C9.3047 8.45013 8.26003 9.4948 6.97136 9.4948C5.6827 9.4948 4.63803 8.45013 4.63803 7.16146C4.63803 5.8728 5.6827 4.82813 6.97136 4.82813C8.26003 4.82813 9.3047 5.8728 9.3047 7.16146Z" stroke="var(--stroke-0, #9C9C9C)"/>
</g>
</svg>
