<svg preserveAspectRatio="none" width="100%" height="100%" overflow="visible" style="display: block;" viewBox="0 0 10.0001 10" fill="none" xmlns="http://www.w3.org/2000/svg">
<g id="elements">
<path id="Vector" d="M4.50006 2.5C4.22391 2.5 4.00006 2.72385 4.00006 2.99999C4.00005 3.27614 4.22391 3.5 4.50005 3.5L4.50006 3L4.50006 2.5ZM8.50005 3.50006C8.7762 3.50006 9.00005 3.27621 9.00006 3.00006C9.00006 2.72392 8.7762 2.50006 8.50006 2.50006L8.50006 3.00006L8.50005 3.50006ZM4.50006 3L4.50005 3.5L8.50005 3.50006L8.50006 3.00006L8.50006 2.50006L4.50006 2.5L4.50006 3Z" fill="var(--stroke-0, #969696)"/>
<path id="Vector_2" d="M4.50006 5H7.00006" stroke="var(--stroke-0, #969696)" stroke-linecap="round" stroke-linejoin="round"/>
<path id="Vector_3" d="M4.50006 7H6.00006" stroke="var(--stroke-0, #969696)" stroke-linecap="round" stroke-linejoin="round"/>
<path id="Vector_4" d="M4.50006 1H9.50006" stroke="var(--stroke-0, #969696)" stroke-linecap="round" stroke-linejoin="round"/>
<path id="Vector_5" d="M1.75 9.5V0.5M1.75 9.5C1.39989 9.5 0.745765 8.50285 0.5 8.25M1.75 9.5C2.10011 9.5 2.75424 8.50285 3 8.25" stroke="var(--stroke-0, #969696)" stroke-linecap="round" stroke-linejoin="round"/>
</g>
</svg>
