<svg viewBox="0 0 21.5 21.5" fill="none" xmlns="http://www.w3.org/2000/svg">
  <path d="M1.75 10.75C6.25 10.75 10.75 6.25 10.75 1.75C10.75 6.25 15.25 10.75 19.75 10.75C15.25 10.75 10.75 15.25 10.75 19.75C10.75 15.25 6.25 10.75 1.75 10.75Z" stroke="currentColor" stroke-width="1.5" stroke-linejoin="round"/>
  <path d="M0.75 18.25C1.58333 18.25 3.25 16.5833 3.25 15.75C3.25 16.5833 4.91667 18.25 5.75 18.25C4.91667 18.25 3.25 19.9167 3.25 20.75C3.25 19.9167 1.58333 18.25 0.75 18.25Z" stroke="currentColor" stroke-width="1.5" stroke-linejoin="round"/>
  <path d="M14.75 3.75C15.75 3.75 17.75 1.75 17.75 0.75C17.75 1.75 19.75 3.75 20.75 3.75C19.75 3.75 17.75 5.75 17.75 6.75C17.75 5.75 15.75 3.75 14.75 3.75Z" stroke="currentColor" stroke-width="1.5" stroke-linejoin="round"/>
</svg>
