<svg preserveAspectRatio="none" width="100%" height="100%" overflow="visible" style="display: block;" viewBox="0 0 28.6667 28.6667" fill="none" xmlns="http://www.w3.org/2000/svg">
<g id="elements">
<path id="Vector" d="M10.3114 1.00001C6.56921 1.08527 4.38346 1.44149 2.89005 2.92972C1.58299 4.23224 1.14607 6.06325 1.00002 9M18.3554 1.00001C22.0975 1.08527 24.2832 1.44149 25.7767 2.92972C27.0837 4.23224 27.5206 6.06325 27.6667 9M18.3554 27.6667C22.0975 27.5814 24.2832 27.2252 25.7767 25.7369C27.0837 24.4344 27.5206 22.6034 27.6667 19.6667M10.3114 27.6667C6.56921 27.5814 4.38346 27.2252 2.89005 25.7369C1.58299 24.4344 1.14607 22.6034 1.00002 19.6667" stroke="url(#paint0_linear_0_22)" stroke-width="2" stroke-linecap="round" stroke-linejoin="round"/>
<path id="Vector_2" d="M20.2929 21.7071C20.6835 22.0977 21.3166 22.0977 21.7071 21.7071C22.0977 21.3166 22.0977 20.6834 21.7071 20.2929L21 21L20.2929 21.7071ZM18.3334 18.3334L17.6263 19.0405L20.2929 21.7071L21 21L21.7071 20.2929L19.0405 17.6263L18.3334 18.3334ZM19.6667 13.6667H20.6667C20.6667 9.8007 17.5327 6.66669 13.6667 6.66669V7.66669V8.66669C16.4281 8.66669 18.6667 10.9053 18.6667 13.6667H19.6667ZM13.6667 7.66669V6.66669C9.80071 6.66669 6.66671 9.8007 6.66671 13.6667H7.66671H8.66671C8.66671 10.9053 10.9053 8.66669 13.6667 8.66669V7.66669ZM7.66671 13.6667H6.66671C6.66671 17.5327 9.80071 20.6667 13.6667 20.6667V19.6667V18.6667C10.9053 18.6667 8.66671 16.4281 8.66671 13.6667H7.66671ZM13.6667 19.6667V20.6667C17.5327 20.6667 20.6667 17.5327 20.6667 13.6667H19.6667H18.6667C18.6667 16.4281 16.4281 18.6667 13.6667 18.6667V19.6667Z" fill="url(#paint1_linear_0_22)"/>
</g>
<defs>
<linearGradient id="paint0_linear_0_22" x1="14.3334" y1="1.00001" x2="14.3334" y2="27.6667" gradientUnits="userSpaceOnUse">
<stop stop-color="#0090FF"/>
<stop offset="1" stop-color="#6ABAFF"/>
</linearGradient>
<linearGradient id="paint1_linear_0_22" x1="14.3334" y1="7.66669" x2="14.3334" y2="21" gradientUnits="userSpaceOnUse">
<stop stop-color="#0090FF"/>
<stop offset="1" stop-color="#6ABAFF"/>
</linearGradient>
</defs>
</svg>
