<svg preserveAspectRatio="none" width="100%" height="100%" overflow="visible" style="display: block;" viewBox="0 0 10.9167 12.6667" fill="none" xmlns="http://www.w3.org/2000/svg">
<g id="elements">
<path id="Vector" d="M2.22608 3.43672L2.8592 2.67469C4.06374 1.2249 4.666 0.5 5.45833 0.5C6.25066 0.5 6.85293 1.2249 8.05746 2.67469L8.69058 3.43672C9.8413 4.82174 10.4167 5.51426 10.4167 6.33333C10.4167 7.15241 9.8413 7.84492 8.69058 9.22995L8.05746 9.99198C6.85293 11.4418 6.25066 12.1667 5.45833 12.1667C4.666 12.1667 4.06374 11.4418 2.85921 9.99198L2.22609 9.22995C1.07536 7.84492 0.5 7.15241 0.5 6.33333C0.5 5.51426 1.07536 4.82174 2.22608 3.43672Z" stroke="var(--stroke-0, #0090FF)"/>
</g>
</svg>
