<svg width="12" height="12" viewBox="0 0 12 12" fill="none" xmlns="http://www.w3.org/2000/svg">
  <path
    d="M6.80887 10.6835C6.59203 10.8865 6.30219 11 6.00056 11C5.69892 11 5.40909 10.8865 5.19224 10.6835C3.20651 8.81299 0.545381 6.72346 1.84313 3.68983C2.54482 2.04958 4.22917 1 6.00056 1C7.77195 1 9.4563 2.04958 10.158 3.68983C11.4541 6.71963 8.79951 8.81944 6.80887 10.6835Z"
    stroke="#969696"
    stroke-linecap="round"
    stroke-linejoin="round"
  />
  <path
    d="M7.75 5.5C7.75 6.4665 6.9665 7.25 6 7.25C5.0335 7.25 4.25 6.4665 4.25 5.5C4.25 4.5335 5.0335 3.75 6 3.75C6.9665 3.75 7.75 4.5335 7.75 5.5Z"
    stroke="#969696"
    stroke-linecap="round"
    stroke-linejoin="round"
  />
</svg>
