<svg preserveAspectRatio="none" width="100%" height="100%" overflow="visible" style="display: block;" viewBox="0 0 10.4999 10.5" fill="none" xmlns="http://www.w3.org/2000/svg">
<g id="elements">
<path id="Vector" d="M5.24995 6.75L5.24995 7.5" stroke="var(--stroke-0, #0090FF)" stroke-linecap="round" stroke-linejoin="round"/>
<path id="Vector_2" d="M0.749945 4.75L0.826383 6.18163C0.908513 7.9885 0.949579 8.89193 1.52937 9.44597C2.10916 10 3.01353 10 4.82226 10H5.67763C7.48637 10 8.39073 10 8.97052 9.44597C9.55031 8.89193 9.59138 7.9885 9.67351 6.18163L9.74995 4.75" stroke="var(--stroke-0, #0090FF)" stroke-linecap="round" stroke-linejoin="round"/>
<path id="Vector_3" d="M0.673537 4.47153C1.52318 6.08722 3.43954 6.75 5.24995 6.75C7.06035 6.75 8.97671 6.08722 9.82635 4.47153C10.2319 3.70028 9.92483 2.25 8.92594 2.25H1.57395C0.575062 2.25 0.267959 3.70028 0.673537 4.47153Z" stroke="var(--stroke-0, #0090FF)"/>
<path id="Vector_4" d="M7.24988 2.25L7.20573 2.09547C6.98573 1.32545 6.87572 0.940438 6.61384 0.720221C6.35195 0.500004 6.00409 0.500004 5.30837 0.500004H5.1914C4.49568 0.500004 4.14782 0.500004 3.88593 0.720221C3.62405 0.940438 3.51404 1.32545 3.29404 2.09547L3.24988 2.25" stroke="var(--stroke-0, #0090FF)"/>
</g>
</svg>
