<svg preserveAspectRatio="none" width="100%" height="100%" overflow="visible" style="display: block;" viewBox="0 0 11 10" fill="none" xmlns="http://www.w3.org/2000/svg">
<g id="elements">
<path id="Vector" d="M0.5 3C0.5 3.67089 4.55308 5.5 5.5 5.5C6.44692 5.5 10.5 3.67089 10.5 3C10.5 2.32911 6.44692 0.5 5.5 0.5C4.55308 0.5 0.5 2.32911 0.5 3Z" stroke="var(--stroke-0, #FFB03A)" stroke-linecap="round" stroke-linejoin="round"/>
<path id="Vector_2" d="M2.5 4.5L3.12642 7.39967C3.16932 7.59828 3.26837 7.78384 3.43353 7.9022C4.54581 8.69927 6.45419 8.69927 7.56647 7.9022C7.73163 7.78384 7.83068 7.59828 7.87358 7.39967L8.5 4.5" stroke="var(--stroke-0, #FFB03A)" stroke-linecap="round" stroke-linejoin="round"/>
<path id="Vector_3" d="M10.25 3.75C10.25 3.47386 10.0261 3.25 9.75 3.25C9.47386 3.25 9.25 3.47386 9.25 3.75H9.75H10.25ZM9.03571 8.88172L9.52217 8.99728L9.03571 8.88172ZM10.4643 8.88172L10.9507 8.76615V8.76615L10.4643 8.88172ZM9.75 3.75H9.25V7.2536H9.75H10.25V3.75H9.75ZM9.03571 8.88172L9.52217 8.99728C9.59123 8.70661 9.71067 8.43827 9.84224 8.1808C9.95892 7.95246 10.1265 7.66139 10.215 7.43727L9.75 7.2536L9.28495 7.06993C9.21936 7.23601 9.11241 7.4114 8.95176 7.72576C8.806 8.011 8.64535 8.36162 8.54925 8.76615L9.03571 8.88172ZM10.4643 8.88172L10.9507 8.76615C10.8546 8.36162 10.694 8.011 10.5482 7.72576C10.3876 7.4114 10.2806 7.23601 10.215 7.06993L9.75 7.2536L9.28495 7.43727C9.37347 7.66139 9.54108 7.95246 9.65776 8.1808C9.78933 8.43827 9.90877 8.70661 9.97783 8.99728L10.4643 8.88172ZM9.90772 9.5V9H9.59228V9.5V10H9.90772V9.5ZM9.03571 8.88172L8.54925 8.76615C8.48684 9.02889 8.43265 9.43533 8.72822 9.73178C8.86568 9.86965 9.03232 9.93149 9.16987 9.96199C9.30692 9.99239 9.45347 10 9.59228 10V9.5V9C9.53916 9 9.49568 8.99842 9.46011 8.99557C9.42425 8.99271 9.40068 8.98888 9.38639 8.98571C9.37198 8.98252 9.37251 8.98119 9.38215 8.98582C9.39282 8.99095 9.41367 9.00295 9.43638 9.02573C9.45986 9.04928 9.47722 9.07626 9.48816 9.102C9.49845 9.12623 9.50005 9.14217 9.50013 9.14309C9.50016 9.14341 9.4992 9.13245 9.50204 9.10639C9.50486 9.08059 9.51085 9.04493 9.52217 8.99728L9.03571 8.88172ZM10.4643 8.88172L9.97783 8.99728C9.98915 9.04493 9.99514 9.08059 9.99796 9.10639C10.0008 9.13245 9.99984 9.14341 9.99987 9.14309C9.99995 9.14217 10.0015 9.12623 10.0118 9.102C10.0228 9.07626 10.0401 9.04928 10.0636 9.02573C10.0863 9.00295 10.1072 8.99095 10.1178 8.98582C10.1275 8.98119 10.128 8.98252 10.1136 8.98571C10.0993 8.98888 10.0757 8.99271 10.0399 8.99557C10.0043 8.99842 9.96084 9 9.90772 9V9.5V10C10.0465 10 10.1931 9.99239 10.3301 9.96199C10.4677 9.93149 10.6343 9.86965 10.7718 9.73178C11.0674 9.43533 11.0132 9.02889 10.9507 8.76615L10.4643 8.88172Z" fill="var(--stroke-0, #FFB03A)"/>
</g>
</svg>
