<svg preserveAspectRatio="none" width="100%" height="100%" overflow="visible" style="display: block;" viewBox="0 0 11 11" fill="none" xmlns="http://www.w3.org/2000/svg">
<g id="elements">
<path id="Vector" d="M1 5.5C3.25 5.5 5.5 3.25 5.5 1C5.5 3.25 7.75 5.5 10 5.5C7.75 5.5 5.5 7.75 5.5 10C5.5 7.75 3.25 5.5 1 5.5Z" stroke="var(--stroke-0, #0090FF)" stroke-linejoin="round"/>
<path id="Vector_2" d="M0.5 9.25C0.916667 9.25 1.75 8.41667 1.75 8C1.75 8.41667 2.58333 9.25 3 9.25C2.58333 9.25 1.75 10.0833 1.75 10.5C1.75 10.0833 0.916667 9.25 0.5 9.25Z" stroke="var(--stroke-0, #0090FF)" stroke-linejoin="round"/>
<path id="Vector_3" d="M7.5 2C8 2 9 1 9 0.5C9 1 10 2 10.5 2C10 2 9 3 9 3.5C9 3 8 2 7.5 2Z" stroke="var(--stroke-0, #0090FF)" stroke-linejoin="round"/>
</g>
</svg>
