<svg preserveAspectRatio="none" width="100%" height="100%" overflow="visible" style="display: block;" viewBox="0 0 21.5 21.5" fill="none" xmlns="http://www.w3.org/2000/svg">
<g id="elements">
<path d="M7.75 13.75C7.75 10.9216 7.75 9.50736 8.62868 8.62868C9.50736 7.75 10.9216 7.75 13.75 7.75L14.75 7.75C17.5784 7.75 18.9926 7.75 19.8713 8.62868C20.75 9.50736 20.75 10.9216 20.75 13.75V14.75C20.75 17.5784 20.75 18.9926 19.8713 19.8713C18.9926 20.75 17.5784 20.75 14.75 20.75H13.75C10.9216 20.75 9.50736 20.75 8.62868 19.8713C7.75 18.9926 7.75 17.5784 7.75 14.75L7.75 13.75Z" stroke="#777777" stroke-width="1.5" stroke-linecap="round" stroke-linejoin="round"/>
<path d="M15.7499 7.75C15.7475 4.79291 15.7028 3.26121 14.842 2.21243C14.6758 2.00989 14.4901 1.82418 14.2876 1.65796C13.1812 0.750001 11.5375 0.750001 8.25 0.75C4.96252 0.75 3.31878 0.75 2.21243 1.65796C2.00989 1.82418 1.82418 2.00989 1.65796 2.21243C0.750001 3.31878 0.750001 4.96252 0.75 8.25C0.75 11.5375 0.75 13.1812 1.65796 14.2876C1.82418 14.4901 2.00989 14.6758 2.21243 14.842C3.26121 15.7028 4.79291 15.7475 7.75 15.7499" stroke="#777777" stroke-width="1.5" stroke-linecap="round" stroke-linejoin="round"/>
</g>
</svg>
