<svg preserveAspectRatio="none" width="100%" height="100%" overflow="visible" style="display: block;" viewBox="0 0 13.6667 14.3333" fill="none" xmlns="http://www.w3.org/2000/svg">
<g id="elements">
<path id="Vector" d="M10.8333 0.5V1.83333M2.83333 0.5V1.83333" stroke="var(--stroke-0, #838383)" stroke-linecap="round" stroke-linejoin="round"/>
<path id="Vector_2" d="M6.83034 7.83333H6.83632M6.83034 10.5H6.83632M9.49402 7.83333H9.5M4.16667 7.83333H4.17265M4.16667 10.5H4.17265" stroke="var(--stroke-0, #838383)" stroke-width="1.3" stroke-linecap="round" stroke-linejoin="round"/>
<path id="Vector_3" d="M1.16667 4.5H12.5" stroke="var(--stroke-0, #838383)" stroke-linecap="round" stroke-linejoin="round"/>
<path id="Vector_4" d="M0.5 7.32883C0.5 4.42396 0.5 2.97152 1.33475 2.06909C2.16949 1.16667 3.51299 1.16667 6.2 1.16667H7.46667C10.1537 1.16667 11.4972 1.16667 12.3319 2.06909C13.1667 2.97152 13.1667 4.42396 13.1667 7.32883V7.67117C13.1667 10.576 13.1667 12.0285 12.3319 12.9309C11.4972 13.8333 10.1537 13.8333 7.46667 13.8333H6.2C3.51299 13.8333 2.16949 13.8333 1.33475 12.9309C0.5 12.0285 0.5 10.576 0.5 7.67117V7.32883Z" stroke="var(--stroke-0, #838383)" stroke-linecap="round" stroke-linejoin="round"/>
<path id="Vector_5" d="M0.833334 4.5H12.8333" stroke="var(--stroke-0, #838383)" stroke-linecap="round" stroke-linejoin="round"/>
</g>
</svg>
