<svg preserveAspectRatio="none" width="100%" height="100%" overflow="visible" style="display: block;" viewBox="0 0 9.33446 9.33435" fill="none" xmlns="http://www.w3.org/2000/svg">
<g id="elements">
<path id="Vector" d="M4.87512 8.83333H2.41298C1.76907 8.83333 1.25692 8.52001 0.797062 8.0819C-0.144312 7.18505 1.40129 6.46833 1.99078 6.11733C2.92804 5.55924 4.03616 5.37955 5.08345 5.57826" stroke="var(--stroke-0, #00CD71)" stroke-linecap="round" stroke-linejoin="round"/>
<path id="Vector_2" d="M6.12512 2.375C6.12512 3.41053 5.28565 4.25 4.25012 4.25C3.21459 4.25 2.37512 3.41053 2.37512 2.375C2.37512 1.33947 3.21459 0.5 4.25012 0.5C5.28565 0.5 6.12512 1.33947 6.12512 2.375Z" stroke="var(--stroke-0, #00CD71)"/>
<path id="Vector_3" d="M7.45473 5.7407L7.74803 6.33215C7.78802 6.41448 7.89468 6.49345 7.98467 6.50857L8.51627 6.59763C8.85624 6.65475 8.93623 6.90343 8.69126 7.14875L8.27797 7.56545C8.20798 7.63602 8.16965 7.77212 8.19131 7.86958L8.30963 8.38542C8.40295 8.79372 8.18798 8.95166 7.82968 8.73827L7.33141 8.44086C7.24142 8.3871 7.0931 8.3871 7.00144 8.44086L6.50316 8.73827C6.14654 8.95166 5.92989 8.79204 6.02322 8.38542L6.14154 7.86958C6.1632 7.77212 6.12487 7.63602 6.05488 7.56545L5.64159 7.14875C5.39829 6.90343 5.47661 6.65475 5.81657 6.59763L6.34818 6.50857C6.4365 6.49345 6.54316 6.41448 6.58315 6.33215L6.87646 5.7407C7.03644 5.41977 7.29641 5.41977 7.45473 5.7407Z" stroke="var(--stroke-0, #00CD71)" stroke-linecap="round" stroke-linejoin="round"/>
</g>
</svg>
