<svg preserveAspectRatio="none" width="100%" height="100%" overflow="visible" style="display: block;" viewBox="0 0 14.3333 14.3332" fill="none" xmlns="http://www.w3.org/2000/svg">
<g id="elements">
<path id="Vector" d="M9.83333 8.5L11.2663 8.07012C12.1817 7.79548 12.6394 7.65817 12.9031 7.30387C13.1667 6.94957 13.1667 6.47168 13.1667 5.51592V0.5" stroke="var(--stroke-0, #969696)" stroke-linejoin="round"/>
<path id="Vector_2" d="M4.5 9.16667L6.5 9.16667M4.5 6.5L6.5 6.5" stroke="var(--stroke-0, #969696)" stroke-linecap="round" stroke-linejoin="round"/>
<path id="Vector_3" d="M7.16667 0.5V2.5C7.16667 3.12854 7.16667 3.44281 6.9714 3.63807C6.77614 3.83333 6.46187 3.83333 5.83333 3.83333L5.16667 3.83333C4.53813 3.83333 4.22386 3.83333 4.0286 3.63807C3.83333 3.44281 3.83333 3.12854 3.83333 2.5L3.83333 0.5" stroke="var(--stroke-0, #969696)" stroke-linejoin="round"/>
<path id="Vector_4" d="M0.5 0.5L13.8333 0.5" stroke="var(--stroke-0, #969696)" stroke-linecap="round"/>
<path id="Vector_5" d="M1.16667 0.5L1.16667 10.6885C1.16667 12.3623 1.16667 13.1993 1.69412 13.6145C2.22158 14.0298 2.99828 13.8043 4.55168 13.3534L7.88501 12.3859C8.82243 12.1138 9.29113 11.9777 9.56223 11.6069C9.83333 11.2361 9.83333 10.731 9.83333 9.72096L9.83333 0.5" stroke="var(--stroke-0, #969696)" stroke-linecap="round" stroke-linejoin="round"/>
</g>
</svg>
