<svg preserveAspectRatio="none" width="100%" height="100%" overflow="visible" style="display: block;" viewBox="0 0 11.0005 11.0005" fill="none" xmlns="http://www.w3.org/2000/svg">
<g id="elements">
<path id="Vector" d="M1.38917 5.47133C0.915153 4.6448 0.686278 3.96989 0.548272 3.28575C0.344165 2.27394 0.811259 1.28555 1.58504 0.654885C1.91208 0.38834 2.28697 0.479408 2.48036 0.826348L2.91695 1.6096C3.263 2.23043 3.43602 2.54085 3.40171 2.86994C3.36739 3.19904 3.13404 3.46708 2.66734 4.00315L1.38917 5.47133ZM1.38917 5.47133C2.34861 7.14429 3.85427 8.65078 5.52917 9.61134M5.52917 9.61134C6.3557 10.0853 7.03061 10.3142 7.71475 10.4522C8.72656 10.6563 9.71495 10.1892 10.3456 9.41546C10.6122 9.08843 10.5211 8.71353 10.1742 8.52015L9.3909 8.08356C8.77007 7.7375 8.45966 7.56448 8.13056 7.5988C7.80146 7.63312 7.53342 7.86647 6.99735 8.33316L5.52917 9.61134Z" stroke="var(--stroke-0, #323232)" stroke-linejoin="round"/>
</g>
</svg>
