<svg preserveAspectRatio="none" width="100%" height="100%" overflow="visible" style="display: block;" viewBox="0 0 10.9981 10.5" fill="none" xmlns="http://www.w3.org/2000/svg">
<g id="elements">
<path id="Vector" d="M3 3L4.47101 3.86972C5.32861 4.37676 5.67139 4.37676 6.52899 3.86972L8 3" stroke="var(--stroke-0, #323232)" stroke-linecap="round" stroke-linejoin="round"/>
<path id="Vector_2" d="M10.498 4.25C10.4967 4.06664 10.4947 4.13509 10.4921 4.01325C10.4594 2.48002 10.4431 1.71341 9.87753 1.14552C9.31196 0.577639 8.52484 0.557856 6.95059 0.51829C5.98035 0.493905 5.01965 0.493903 4.04941 0.518287C2.47516 0.557849 1.68804 0.577631 1.12248 1.14552C0.556912 1.7134 0.540568 2.48002 0.507882 4.01324C0.497372 4.50623 0.497373 4.99632 0.507883 5.48931C0.54057 7.02253 0.556914 7.78915 1.12248 8.35703C1.68804 8.92492 2.47517 8.9447 4.04941 8.98426C4.3534 8.9919 4.74783 8.99715 5 9" stroke="var(--stroke-0, #323232)" stroke-linecap="round" stroke-linejoin="round"/>
<g id="Vector_3">
<path d="M7.293 8.5741C6.97861 8.75837 6.15429 9.13465 6.65636 9.6055C6.90161 9.8355 7.17476 10 7.51818 10H9.47779C9.82121 10 10.0944 9.8355 10.3396 9.6055C10.8417 9.13465 10.0174 8.75837 9.70297 8.5741C8.96572 8.14197 8.03025 8.14197 7.293 8.5741Z" stroke="var(--stroke-0, #323232)"/>
<path d="M9.49799 6.25C9.49799 6.80228 9.05027 7.25 8.49799 7.25C7.9457 7.25 7.49799 6.80228 7.49799 6.25C7.49799 5.69772 7.9457 5.25 8.49799 5.25C9.05027 5.25 9.49799 5.69772 9.49799 6.25Z" stroke="var(--stroke-0, #323232)"/>
</g>
</g>
</svg>
