<svg preserveAspectRatio="none" width="100%" height="100%" overflow="visible" style="display: block;" viewBox="0 0 14.3308 13.6667" fill="none" xmlns="http://www.w3.org/2000/svg">
<g id="elements">
<path id="Vector" d="M3.83333 3.83333L5.79468 4.99295C6.93815 5.66902 7.39519 5.66902 8.53866 4.99295L10.5 3.83333" stroke="var(--stroke-0, #646464)" stroke-linecap="round" stroke-linejoin="round"/>
<path id="Vector_2" d="M13.8306 5.5C13.8289 5.25552 13.8263 5.34678 13.8228 5.18433C13.7792 3.14003 13.7575 2.11788 13.0034 1.3607C12.2493 0.603518 11.1998 0.577141 9.10079 0.524386C7.80713 0.491873 6.52621 0.491871 5.23255 0.524382C3.13355 0.577132 2.08406 0.603507 1.32997 1.36069C0.575882 2.11787 0.554091 3.14002 0.51051 5.18432C0.496496 5.84164 0.496497 6.49509 0.510511 7.15241C0.554094 9.19671 0.575886 10.2189 1.32997 10.976C2.08406 11.7332 3.13356 11.7596 5.23255 11.8124C5.63787 11.8225 6.16378 11.8295 6.5 11.8333" stroke="var(--stroke-0, #646464)" stroke-linecap="round" stroke-linejoin="round"/>
<g id="Vector_3">
<path d="M9.55734 11.2655C9.13815 11.5112 8.03905 12.0129 8.70847 12.6407C9.03548 12.9473 9.39968 13.1667 9.85757 13.1667H12.4704C12.9283 13.1667 13.2925 12.9473 13.6195 12.6407C14.2889 12.0129 13.1898 11.5112 12.7706 11.2655C11.7876 10.6893 10.5403 10.6893 9.55734 11.2655Z" stroke="var(--stroke-0, #646464)"/>
<path d="M12.4973 8.16667C12.4973 8.90305 11.9004 9.5 11.164 9.5C10.4276 9.5 9.83065 8.90305 9.83065 8.16667C9.83065 7.43029 10.4276 6.83333 11.164 6.83333C11.9004 6.83333 12.4973 7.43029 12.4973 8.16667Z" stroke="var(--stroke-0, #646464)"/>
</g>
</g>
</svg>
