<svg preserveAspectRatio="none" width="100%" height="100%" overflow="visible" style="display: block;" viewBox="0 0 14.3335 14.3333" fill="none" xmlns="http://www.w3.org/2000/svg">
<g id="elements">
<path id="Vector" d="M7.83345 13.8333H3.5607C2.53044 13.8333 1.71099 13.332 0.975225 12.631C-0.530973 11.1961 1.94199 10.0493 2.88517 9.48772C4.48464 8.53533 6.39512 8.27168 8.16678 8.69678" stroke="var(--stroke-0, #777777)" stroke-linecap="round" stroke-linejoin="round"/>
<path id="Vector_2" d="M10.1668 3.5C10.1668 5.15685 8.82364 6.5 7.16678 6.5C5.50993 6.5 4.16678 5.15685 4.16678 3.5C4.16678 1.84315 5.50993 0.5 7.16678 0.5C8.82364 0.5 10.1668 1.84315 10.1668 3.5Z" stroke="var(--stroke-0, #777777)"/>
<path id="Vector_3" d="M9.83345 13.8333L11.8335 11.8333M11.8335 11.8333L13.8335 9.83333M11.8335 11.8333L9.83345 9.83333M11.8335 11.8333L13.8335 13.8333" stroke="var(--stroke-0, #777777)" stroke-linecap="round"/>
</g>
</svg>
