<svg preserveAspectRatio="none" width="100%" height="100%" overflow="visible" style="display: block;" viewBox="0 0 14.3345 14.3344" fill="none" xmlns="http://www.w3.org/2000/svg">
<g id="elements">
<path id="Vector" d="M7.50012 13.8333H3.5607C2.53044 13.8333 1.71099 13.332 0.975225 12.631C-0.530973 11.1961 1.94199 10.0493 2.88517 9.48772C4.38479 8.59479 6.15779 8.30729 7.83345 8.62522" stroke="var(--stroke-0, #646464)" stroke-linecap="round" stroke-linejoin="round"/>
<path id="Vector_2" d="M9.50012 3.5C9.50012 5.15685 8.15697 6.5 6.50012 6.5C4.84326 6.5 3.50012 5.15685 3.50012 3.5C3.50012 1.84315 4.84326 0.5 6.50012 0.5C8.15697 0.5 9.50012 1.84315 9.50012 3.5Z" stroke="var(--stroke-0, #646464)"/>
<path id="Vector_3" d="M11.6275 8.88511L12.0968 9.83143C12.1608 9.96317 12.3314 10.0895 12.4754 10.1137L13.326 10.2562C13.8699 10.3476 13.9979 10.7455 13.6059 11.138L12.9447 11.8047C12.8327 11.9176 12.7714 12.1354 12.806 12.2913L12.9953 13.1167C13.1447 13.7699 12.8007 14.0227 12.2274 13.6812L11.4302 13.2054C11.2862 13.1194 11.0489 13.1194 10.9022 13.2054L10.105 13.6812C9.53439 14.0227 9.18776 13.7673 9.33707 13.1167L9.52639 12.2913C9.56105 12.1354 9.49972 11.9176 9.38774 11.8047L8.72648 11.138C8.33718 10.7455 8.4625 10.3476 9.00644 10.2562L9.85702 10.1137C9.99833 10.0895 10.169 9.96317 10.233 9.83143L10.7023 8.88511C10.9582 8.37163 11.3742 8.37163 11.6275 8.88511Z" stroke="var(--stroke-0, #646464)" stroke-linecap="round" stroke-linejoin="round"/>
</g>
</svg>
