<svg preserveAspectRatio="none" width="100%" height="100%" overflow="visible" style="display: block;" viewBox="0 0 14.3338 14.3338" fill="none" xmlns="http://www.w3.org/2000/svg">
<g id="elements">
<path id="Vector" d="M1.68544 7.12839C1.05342 6.02635 0.748252 5.12647 0.564245 4.21429C0.292102 2.8652 0.914894 1.54735 1.94661 0.706464C2.38265 0.35107 2.88251 0.472493 3.14036 0.93508L3.72248 1.97942C4.18388 2.80719 4.41458 3.22108 4.36882 3.65988C4.32306 4.09867 4.01193 4.45606 3.38967 5.17082L1.68544 7.12839ZM1.68544 7.12839C2.96469 9.359 4.97225 11.3677 7.20545 12.6484M7.20545 12.6484C8.30748 13.2804 9.20737 13.5856 10.1195 13.7696C11.4686 14.0417 12.7865 13.4189 13.6274 12.3872C13.9828 11.9512 13.8613 11.4513 13.3988 11.1935L12.3544 10.6114C11.5266 10.15 11.1128 9.91925 10.674 9.96501C10.2352 10.0108 9.87778 10.3219 9.16302 10.9442L7.20545 12.6484Z" stroke="var(--stroke-0, #777777)" stroke-linejoin="round"/>
</g>
</svg>
